<svg version="1.1" xmlns="http://www.w3.org/2000/svg" xmlns:xlink="http://www.w3.org/1999/xlink" width="184.52763" height="138.45403" viewBox="0,0,184.52763,138.45403"><g transform="translate(-142.38953,-133.0681)"><g data-paper-data="{&quot;isPaintingLayer&quot;:true}" fill-rule="nonzero" stroke="none" stroke-width="1" stroke-linecap="butt" stroke-linejoin="miter" stroke-miterlimit="10" stroke-dasharray="" stroke-dashoffset="0" style="mix-blend-mode: normal"><path d="M283.655,223.89c0,0 -6.87,40.715 -8.92,45.83c-1.52,0.135 -11.58,0.405 -13.08,-0.05c0.87,-9.115 5.595,-44.17 5.595,-44.17z" data-paper-data="{&quot;index&quot;:null}" fill="#008264"/><path d="M233.39,224.1c0,0 -3.685,40.495 -5.74,45.615c-1.52,0.135 -11.1,0.735 -12.6,0.285c0.865,-9.115 3.5,-44.5 3.5,-44.5z" data-paper-data="{&quot;index&quot;:null}" fill="#008264"/><path d="M144.783,177.32c5.705,-1.155 12.32,-0.92 15.82,4.46c3.43,5.265 3.215,13.325 2.93,19.325c-0.3,6.22 -0.91,12.325 -1.71,18.5c-0.31,2.375 -1.635,15.62 0,24.675c1.26,6.945 5.12,10.5 7.395,10.5c5.24,0 10.53,-3.03 12.19,-7.075c1.66,-4.045 2,-8.255 2.215,-12.545c0.2,-4.13 0.5,-8.22 0.665,-12.345c0.165,-4.125 1.475,-18.785 2.035,-22.89c0.125,3.965 9.475,15.5 15.41,20.185c-1.195,10.3 -1.39,42.445 -12.065,48.14c-8.855,4.725 -24.57,4.54 -32.315,-1.915c-7.915,-6.595 -9.325,-17.065 -8.77,-27.37c0.708,-12.295 2.14,-24.538 4.29,-36.665c0.8,-4.63 1.815,-11.385 -0.645,-15.645c-1.55,-2.685 -4,-3.725 -6.81,-4.425c-1.375,-0.34 -2.785,-0.35 -3,-1.855c-0.24,-1.375 1.08,-2.795 2.365,-3.055z" data-paper-data="{&quot;index&quot;:null}" fill="#005a5a"/><path d="M196.513,179.025c8.135,-8.315 18.585,-14.105 30.415,-13.76c13.43,0.39 27.065,5.925 29.835,3.765c4.31,-3.36 5.34,-15.655 6.68,-16.86l16.8,12.795c2.21,18.59 5.115,42.535 5.145,45.235c0.155,7.87 -1.2,19.395 -6.045,24.915c-4.845,5.52 -10.235,5.72 -13.195,6.73c-3.47,1.185 -37.29,1.875 -43.22,1.18c-0.14,-0.12 -21.525,1.245 -29.065,-8.72c-7.54,-9.965 -8.56,-21.605 -8.555,-25.695c0.015,-10.92 3.425,-21.61 11.205,-29.585z" data-paper-data="{&quot;index&quot;:null}" fill="#00a08c"/><path d="M258.315,224.105c0,0 -3.685,40.495 -5.735,45.61c-1.52,0.135 -11.1,0.735 -12.6,0.285c0.865,-9.115 3.5,-44.5 3.5,-44.5z" data-paper-data="{&quot;index&quot;:null}" fill="#00a08c"/><path d="M210.675,224.105c0,0 -3.68,40.495 -5.735,45.61c-1.52,0.135 -11.1,0.735 -12.6,0.285c0.865,-9.115 3.5,-44.5 3.5,-44.5z" data-paper-data="{&quot;index&quot;:null}" fill="#00a08c"/><g data-paper-data="{&quot;index&quot;:null}"><path d="M323.905,245.42c-2.895,6.7 -7.36,11.895 -14.825,13.26c-5.875,1.075 -14.25,1.56 -15.425,-5.82c0.05,-0.125 0.56,-2.515 0.665,-2.77z" fill="#00a08c"/><path d="M312.026,248.26c-1.155,2.96 -3.51,5.725 -6.42,6.785c-2.867,1.018 -6.028,0.797 -8.725,-0.61c-2.995,-1.57 -1.74,-4.635 -1.83,-5.25z" fill="#000000"/><path d="M299.013,249.965c0,0 0.205,2.02 -1.085,2.925c-0.897,0.639 -2.131,0.502 -2.865,-0.32c-0.525,-0.615 -1.025,-2.695 -1.025,-2.695z" fill="#ffffff"/><path d="M326.443,218.85c0.88,8.785 0.79,18.765 -2.5,26.57c-3.255,1.89 -4.985,1.94 -8.865,3.695c-5.53,2.505 -11.665,3.02 -13.385,3.155c-2.5,0.19 -5.505,-0.015 -7.865,-0.945c-5.27,-2.075 -7.51,-9.955 -4.175,-14.575c1.87,-2.585 5.06,-2.365 7.6,-3.865c2.73,-1.585 5.14,-4.835 6.395,-7.67c0.884,-2.021 1.441,-4.169 1.65,-6.365z" fill="#00a08c"/></g><path d="M284.57,208.58h-23.275c1.15,-1.255 2,-3.025 2.5,-5.45c1.15,-5.22 0.455,-11.33 -0.03,-16.62c-0.545,-5.91 -1.69,-10.765 -1.81,-16.7c-0.12,-5.935 -0.165,-11.815 1.5,-17.64c1.785,-6.24 6.77,-12.36 12.295,-15.5c10.605,-6.065 23.575,-4.135 33,3.275c9.09,7.14 14.775,19.405 16.325,30.705c0.858,6.228 1.217,12.515 1.075,18.8c-0.135,5.5 0.365,35.19 0.7,39.315l-21.225,-1.875c0.15,-1.42 -1.27,-34.67 -1.46,-45.76c-0.095,-5.455 -0.84,-11.735 -3.06,-16.775c-1.905,-4.335 -7.04,-8.79 -11.755,-5.43c-3.885,2.77 -5.62,8.565 -6.47,13c-1.18,6.185 -1.14,12.425 -0.455,18.67c0.47,3.85 1.25,10.455 2.145,17.985z" data-paper-data="{&quot;index&quot;:null}" fill="#00a08c"/><g data-paper-data="{&quot;index&quot;:null}"><path d="M301.646,246.385c-0.27,-1.97 1.75,-3.25 2.45,-0.54c0.735,2.87 -2.18,2.515 -2.45,0.54z" fill="#005a5a"/><path d="M290.639,244.705c-0.265,-1.97 1.755,-3.255 2.45,-0.54c0.74,2.87 -2.18,2.51 -2.45,0.54z" fill="#005a5a"/><path d="M285.754,241.65l-0.78,-0.18c-0.554,-1.133 -0.488,-2.472 0.175,-3.545l0.575,0.115c0.895,0.75 0.92,2.755 0.03,3.61z" fill="#000000"/><path d="M319.86,241.47l-0.785,-0.18c-0.552,-1.134 -0.486,-2.471 0.175,-3.545l0.575,0.115c0.89,0.75 0.915,2.755 0.035,3.61z" fill="#000000"/></g></g></g></svg>