<svg version="1.1" xmlns="http://www.w3.org/2000/svg" xmlns:xlink="http://www.w3.org/1999/xlink" width="81.5" height="105.52629" viewBox="0,0,81.5,105.52629"><g transform="translate(-214.21539,-127.82224)"><g data-paper-data="{&quot;isPaintingLayer&quot;:true}" stroke-miterlimit="10" stroke-dasharray="" stroke-dashoffset="0" style="mix-blend-mode: normal"><path d="M252.85203,201.07477c3.48787,3.49782 0.47692,6.87186 -1.01526,9.27465c-2.08905,3.3639 -4.32484,5.22167 -4.05165,6.39016c0.93337,3.99235 3.92806,8.01626 3.53359,11.60016c-0.27816,2.32435 -10.26218,4.86393 -12.84958,4.33918c-3.23994,-0.68028 -5.14209,-7.93782 4.02123,-9.15586c0,0 -5.34315,-7.48003 -4.04954,-11.17145c1.8285,-5.35692 4.7813,-8.10119 5.49831,-8.9877c2.19656,-2.46477 5.85374,-5.27102 8.9129,-2.28915z" data-paper-data="{&quot;index&quot;:null}" fill="#ffab19" fill-rule="evenodd" stroke="#001026" stroke-width="1.2" stroke-linecap="round" stroke-linejoin="round"/><g data-paper-data="{&quot;index&quot;:null}" fill-rule="evenodd"><path d="M246.88377,199.3c0.6,0.8 3.3,2 -0.2,4.2c-3.6,2.1 -12.7,5 -21.6,-2.9c-9.6,-8.6 -4.5,-20.3 -0.1,-20.7c4.3,-0.4 2.6,6.6 5.7,14.4c4.4,11.3 15.6,4.2 16.2,5z" fill="#ffab19" stroke="#001026" stroke-width="1.2" stroke-linecap="round" stroke-linejoin="round"/><path d="M227.78377,185.1c0.5,4.4 1.5,7.4 1.5,7.4c0,0 -1.6,-2 -4,-1.6c-2.9,0.5 -3.8,2.9 -3.9,3.6c-0.7,-1.7 -1.3,-3.8 -1.1,-7.4c0.5,-3.5 2.7,-7.1 5.2,-6.7c2,0.4 1.9,2 2.3,4.7z" fill="#ffffff" stroke="none" stroke-width="1" stroke-linecap="butt" stroke-linejoin="miter"/></g><path d="M261.60118,189.54589c-0.00098,-2.7459 2.65318,-4.71706 4.16151,-2.95497c1.45367,1.67835 6.2123,8.60333 8.93264,8.38021c2.58194,-0.2522 7.35072,-5.753 10.36386,-1.86829c2.95849,3.80097 -2.43007,7.43739 -7.77196,9.13272c-6.90039,2.23487 -15.42838,-4.97647 -15.68605,-12.68968z" data-paper-data="{&quot;index&quot;:null}" fill="#ffab19" fill-rule="evenodd" stroke="#001026" stroke-width="1.2" stroke-linecap="round" stroke-linejoin="round"/><path d="M261.83573,205.5955c0,0 5.13722,2.8194 6.27123,5.89251c1.04874,3.18593 -2.67268,11.27549 -2.67268,11.27549c0,0 6.50746,3.23466 3.32206,7.91795c-2.34641,3.45606 -4.86973,1.28285 -13.07794,-4.7442c-1.241,-0.93803 -1.46134,-2.52279 -0.7214,-3.73625c1.74948,-2.66633 4.15627,-7.14041 1.91367,-8.74688c-3.04875,-1.59535 -6.49369,-3.13561 -8.63989,-4.04875c-8.78289,-3.62502 -9.77918,-12.31143 -6.46507,-21.15206c1.75743,-4.78764 9.23786,-1.74798 15.34595,-1.38569c3.43647,0.02701 4.69923,-0.64747 6.8645,-1.04949c3.25478,-0.5535 4.08101,4.9796 3.53387,7.57972c0,0 -0.87712,3.85755 -1.90308,5.91847c-1.25425,2.59747 -2.70659,5.22249 -3.77121,6.27917z" data-paper-data="{&quot;index&quot;:null}" fill="#ffab1a" fill-rule="evenodd" stroke="#001026" stroke-width="1.2" stroke-linecap="round" stroke-linejoin="round"/><path d="M261.61186,128.32147c0.3,-0.2 0.8,-0.1 0.9,0.3l2.6,10.7c0,0 6.4,4.7 8.3,8c3.2,5.5 3.3,10 3.3,10c0,0 7.1,2.1 8.3,7.8c1.2,5.7 -3.2,16.5 -22,20.2c-18.8,3.7 -33.9,-1.4 -41,-12.8c-7.1,-11.4 4.1,-25 3.5,-24.2l-2.1,-17.9c-0.1,-0.4 0.4,-0.7 0.8,-0.5l12.1,7.9c0,0 4.5,-1.7 9.2,-1.9c2.8,-0.2 5.2,0 7.5,0.4z" data-paper-data="{&quot;index&quot;:null}" fill="#ffab19" fill-rule="evenodd" stroke="#001026" stroke-width="1.2" stroke-linecap="butt" stroke-linejoin="miter"/><path d="M272.76952,158.025c0,0 6.9,1.8 8.1,7.5c1.2,5.7 -3.6,16 -22.2,19.6c-24.2,5 -35.7,-9.4 -29,-20c6.7,-10.7 18.2,-1.6 26.6,-2.2c7.2,-0.5 8,-6.8 16.5,-4.9z" data-paper-data="{&quot;index&quot;:null}" fill="#ffffff" fill-rule="evenodd" stroke="none" stroke-width="1" stroke-linecap="butt" stroke-linejoin="miter"/><path d="M244.71439,170.43188c-0.06711,-0.3894 0.27197,-0.74856 0.67815,-0.71831c1.96709,0.3627 7.49247,1.01441 13.40063,0.39723c5.30728,-0.61386 8.37219,-1.44276 9.78212,-1.98646c0.46998,-0.18123 0.94326,0.23841 0.83244,0.75872c-0.4232,2.77946 -2.8643,10.71829 -13.18681,11.89569c-9.0267,0.55313 -10.97654,-5.52634 -11.50653,-10.34687z" data-paper-data="{&quot;index&quot;:null}" fill="#ffffff" fill-rule="evenodd" stroke="#001026" stroke-width="1.2" stroke-linecap="round" stroke-linejoin="round"/><path d="M295.11539,158.82147c-4.7,3.8 -11.9,3.9 -11.9,3.9" data-paper-data="{&quot;index&quot;:null}" fill="none" fill-rule="evenodd" stroke="#001026" stroke-width="1.2" stroke-linecap="round" stroke-linejoin="round"/><path d="M293.81539,169.70897c-6.3,0.5 -10.2,-1.4 -10.2,-1.4" data-paper-data="{&quot;index&quot;:null}" fill="none" fill-rule="evenodd" stroke="#001026" stroke-width="1.2" stroke-linecap="round" stroke-linejoin="round"/><path d="M259.81539,160.02147c2.1,0 4.3,0.2 4.4,0.9c0.1,1.4 -1.4,4.2 -3,4.3c-1.8,0.2 -6,-2.3 -6,-3.9c-0.1,-1.2 2.6,-1.3 4.6,-1.3z" data-paper-data="{&quot;index&quot;:null}" fill="#001026" fill-rule="evenodd" stroke="#001026" stroke-width="1.2" stroke-linecap="round" stroke-linejoin="round"/><path d="M214.81539,158.52147c0,0 8.6,2.8 12.1,5.9" data-paper-data="{&quot;index&quot;:null}" fill="none" fill-rule="evenodd" stroke="#001026" stroke-width="1.2" stroke-linecap="round" stroke-linejoin="round"/><path d="M227.21539,167.92147c-4.3,1.7 -11.7,0.6 -11.7,0.6" data-paper-data="{&quot;index&quot;:null}" fill="none" fill-rule="evenodd" stroke="#001026" stroke-width="1.2" stroke-linecap="round" stroke-linejoin="round"/><path d="M263.75139,198.33858c1.85079,4.65453 -3.5406,7.267 -3.5406,7.267c0,0 -12.54898,0.2017 -14.3403,-1.06367c-2.22883,-1.50743 -1.19597,-4.28916 0.35806,-7.63505c1.45234,-2.62502 7.46203,-6.07032 12.09288,-3.98822c4.63086,2.0821 5.31122,5.5164 5.48565,5.44779c0.05752,-0.02263 -1.34446,-3.26897 -0.05569,-0.02785z" data-paper-data="{&quot;index&quot;:null}" fill="#ffffff" fill-rule="evenodd" stroke="none" stroke-width="1" stroke-linecap="butt" stroke-linejoin="miter"/><path d="M271.61539,148.32147c2.9,4.5 3,9.6 0.2,11.4c-2.8,1.8 -7.4,-0.3 -10.4,-4.8c-2.9,-4.5 -3,-9.6 -0.2,-11.4c2.8,-1.9 7.5,0.3 10.4,4.8z" data-paper-data="{&quot;index&quot;:null}" fill="#ffffff" fill-rule="evenodd" stroke="#001026" stroke-width="1.2" stroke-linecap="round" stroke-linejoin="round"/><path d="M268.78716,154.93206c0,1.1 -0.8,2 -1.8,2c-1,0 -1.8,-0.9 -1.8,-2c0,-1.1 0.8,-2 1.8,-2c1,0 1.8,0.9 1.8,2" data-paper-data="{&quot;index&quot;:null}" fill="#001026" fill-rule="evenodd" stroke="none" stroke-width="1" stroke-linecap="butt" stroke-linejoin="miter"/><path d="M246.81539,151.12147c3,4.4 2.8,9.8 0.1,11.7c-3.3,1.9 -7.7,0.5 -10.7,-3.9c-3.1,-4.4 -3.3,-10.1 -0.2,-12.3c3.1,-2.3 7.8,0.1 10.8,4.5z" data-paper-data="{&quot;index&quot;:null}" fill="#ffffff" fill-rule="evenodd" stroke="#001026" stroke-width="1.2" stroke-linecap="round" stroke-linejoin="round"/><path d="M244.39422,157.83206c0,1.1 -0.8,2 -1.8,2c-1,0 -1.8,-0.9 -1.8,-2c0,-1.1 0.8,-2 1.8,-2c1,0.1 1.8,0.9 1.8,2" data-paper-data="{&quot;index&quot;:null}" fill="#001026" fill-rule="evenodd" stroke="none" stroke-width="1" stroke-linecap="butt" stroke-linejoin="miter"/><path d="M249.62977,191.91114c-4.91885,4.7171 -12.18835,11.94515 -16.41976,10.28528c-1.86347,-0.68372 -9.2925,-6.06046 -11.11051,-9.96877c-1.87565,-4.21923 3.44637,-8.64711 6.88804,-5.52221c2.4626,2.18073 6.55389,5.86059 6.86482,5.80295c1.05943,-0.3572 3.77663,-3.91626 6.18581,-4.10557" data-paper-data="{&quot;index&quot;:null}" fill="#ffab19" fill-rule="evenodd" stroke="#001026" stroke-width="1.2" stroke-linecap="round" stroke-linejoin="round"/><path d="M253.16347,210.00867l-0.04482,-0.00124c-1.04048,0.10315 -1.63391,-0.25772 -2.25635,0.72631c0,0 -0.13868,0.20802 -0.34669,0.06934c-0.20801,-0.13868 -0.06933,-0.34669 -0.06933,-0.34669c0.76277,-1.10503 1.42567,-0.82568 2.62262,-0.94648l0.09457,-0.00124c0,0 0.25,0 0.25,0.25c0,0.25 -0.25,0.25 -0.25,0.25z" data-paper-data="{&quot;index&quot;:null}" fill="#ffb51b" fill-rule="nonzero" stroke="none" stroke-width="0.5" stroke-linecap="butt" stroke-linejoin="miter"/><path d="M243.59057,202.72917c0.67082,-0.33541 1.00623,0.33541 1.00623,0.33541l0.25678,0.91731c-0.03982,0.1593 -0.24037,0.97757 -0.37081,1.45251c1.88927,0.91389 3.91579,1.78665 5.61273,2.91294c1.00017,0.66384 1.84972,3.54301 -0.48966,3.39297c-0.3613,-0.02317 -0.47346,-0.42432 -0.59294,-0.8388c-0.11608,0.26408 -0.37997,0.44849 -0.68693,0.44849c-0.24849,0 -0.46875,-0.12084 -0.60523,-0.30698l-0.59476,-0.79301l0.09598,-0.07199c-0.1712,-0.17823 -0.33856,-0.3644 -0.48686,-0.54932c-0.11766,0.07672 -0.25818,0.12131 -0.40912,0.12131c-0.12597,0 -0.24469,-0.03106 -0.34891,-0.08593l-0.78651,-0.39326l0.13079,-0.26157l-0.50688,-0.17208c0.0206,-0.04122 0.0398,-0.08383 0.05786,-0.12753c-0.54582,-0.27531 -0.89099,-1.26204 -1.25975,-1.42826c-0.29006,-0.13074 -0.75693,0.36405 -0.94817,0.10977c-0.8486,-1.12836 0.44817,-2.62992 0.73395,-3.77305l-0.14321,0.11731c0,0 -0.33541,-0.67082 0.33541,-1.00623z" data-paper-data="{&quot;index&quot;:null}" fill="#ffab1a" fill-rule="nonzero" stroke="none" stroke-width="0.5" stroke-linecap="butt" stroke-linejoin="miter"/><path d="M249.79479,190.45657l0.73118,-0.25657c0,0 1,0 1,1c0,0.28365 -0.08046,0.48684 -0.19573,0.6324c-0.00148,0.0062 -0.00335,0.01258 -0.00561,0.01913c-0.56114,1.62788 -3.89921,3.07424 -4.99867,4.54848l-0.10557,0.24721c0,0 -0.44721,0.89442 -1.34164,0.44721c-0.89443,-0.44721 -0.44721,-1.34164 -0.44721,-1.34164l0.29442,-0.55279c0.928,-1.2313 1.97582,-2.0831 3.2,-3c0.14756,-0.11052 0.28056,-0.24929 0.42202,-0.37166c-0.13885,-0.17171 -0.22201,-0.39032 -0.22201,-0.62834c0,-0.55229 0.44772,-1 1,-1c0.25716,0 0.49164,0.09708 0.66882,0.25657z" data-paper-data="{&quot;index&quot;:null}" fill="#ffab19" fill-rule="nonzero" stroke="none" stroke-width="0.5" stroke-linecap="butt" stroke-linejoin="miter"/><path d="M263.81039,198.49143l-0.09903,-0.17969c-0.21898,-0.47446 -0.5061,-0.92732 -0.69475,-1.40995c0,0 -0.08975,-0.23334 0.14359,-0.32308c0.23334,-0.08975 0.32308,0.14359 0.32308,0.14359c0.17773,0.47161 0.46866,0.91755 0.68206,1.37991l0.08213,0.1464c0,0 0.12141,0.21854 -0.09713,0.33995c-0.21854,0.12141 -0.33995,-0.09713 -0.33995,-0.09713z" data-paper-data="{&quot;index&quot;:null}" fill="#ffab1a" fill-rule="nonzero" stroke="none" stroke-width="0.5" stroke-linecap="butt" stroke-linejoin="miter"/></g></g></svg>