<svg version="1.1" xmlns="http://www.w3.org/2000/svg" xmlns:xlink="http://www.w3.org/1999/xlink" width="81.5" height="106.08168" viewBox="0,0,81.5,106.08168"><g transform="translate(-207.34039,-127.19724)"><g data-paper-data="{&quot;isPaintingLayer&quot;:true}" stroke-miterlimit="10" stroke-dasharray="" stroke-dashoffset="0" style="mix-blend-mode: normal"><path d="M252.67394,201.07476c3.05916,-2.98187 6.71634,-0.17562 8.9129,2.28915c0.71701,0.88651 3.66981,3.63078 5.49831,8.9877c1.29361,3.69142 -4.04954,11.17145 -4.04954,11.17145c9.16332,1.21804 7.26117,8.47558 4.02123,9.15586c-2.5874,0.52475 -12.57142,-2.01483 -12.84958,-4.33918c-0.39447,-3.5839 2.60022,-7.60781 3.53359,-11.60016c0.27319,-1.16849 -1.9626,-3.02626 -4.05165,-6.39016c-1.49218,-2.40279 -4.50313,-5.77683 -1.01526,-9.27465z" data-paper-data="{&quot;index&quot;:null}" fill="#ffab19" fill-rule="evenodd" stroke="#001026" stroke-width="1.2" stroke-linecap="round" stroke-linejoin="round"/><g data-paper-data="{&quot;index&quot;:null}" fill-rule="evenodd"><path d="M274.8422,194.3c3.1,-7.8 1.4,-14.8 5.7,-14.4c4.4,0.4 9.5,12.1 -0.1,20.7c-8.9,7.9 -18,5 -21.6,2.9c-3.5,-2.2 -0.8,-3.4 -0.2,-4.2c0.6,-0.8 11.8,6.3 16.2,-5z" fill="#ffab19" stroke="#001026" stroke-width="1.2" stroke-linecap="round" stroke-linejoin="round"/><path d="M280.0422,180.4c2.5,-0.4 4.7,3.2 5.2,6.7c0.2,3.6 -0.4,5.7 -1.1,7.4c-0.1,-0.7 -1,-3.1 -3.9,-3.6c-2.4,-0.4 -4,1.6 -4,1.6c0,0 1,-3 1.5,-7.4c0.4,-2.7 0.3,-4.3 2.3,-4.7z" fill="#ffffff" stroke="none" stroke-width="1" stroke-linecap="butt" stroke-linejoin="miter"/></g><path d="M243.92479,189.54588c-0.25767,7.71321 -8.78566,14.92455 -15.68605,12.68968c-5.34189,-1.69533 -10.73045,-5.33175 -7.77196,-9.13272c3.01314,-3.88471 7.78192,1.61609 10.36386,1.86829c2.72034,0.22312 7.47897,-6.70186 8.93264,-8.38021c1.50833,-1.76209 4.16249,0.20907 4.16151,2.95497z" data-paper-data="{&quot;index&quot;:null}" fill="#ffab19" fill-rule="evenodd" stroke="#001026" stroke-width="1.2" stroke-linecap="round" stroke-linejoin="round"/><path d="M243.69023,205.59549c-1.06462,-1.05668 -2.51696,-3.6817 -3.77121,-6.27917c-1.02596,-2.06092 -1.90308,-5.91847 -1.90308,-5.91847c-0.54714,-2.60012 0.27909,-8.13322 3.53387,-7.57972c2.16527,0.40202 3.42803,1.0765 6.8645,1.04949c6.10809,-0.36229 13.58852,-3.40195 15.34595,1.38569c3.31411,8.84063 2.31782,17.52704 -6.46507,21.15206c-2.1462,0.91314 -5.59114,2.4534 -8.63989,4.04875c-2.2426,1.60647 0.16419,6.08055 1.91367,8.74688c0.73994,1.21346 0.5196,2.79822 -0.7214,3.73625c-8.20821,6.02705 -10.73153,8.20026 -13.07794,4.7442c-3.1854,-4.68329 3.32206,-7.91795 3.32206,-7.91795c0,0 -3.72142,-8.08956 -2.67268,-11.27549c1.13401,-3.07311 6.27123,-5.89251 6.27123,-5.89251z" fill="#ffab1a" fill-rule="evenodd" stroke="#001026" stroke-width="1.2" stroke-linecap="round" stroke-linejoin="round"/><path d="M250.04392,135.69647c2.3,-0.4 4.7,-0.6 7.5,-0.4c4.7,0.2 9.2,1.9 9.2,1.9l12.1,-7.9c0.4,-0.2 0.9,0.1 0.8,0.5l-2.1,17.9c-0.6,-0.8 10.6,12.8 3.5,24.2c-7.1,11.4 -22.2,16.5 -41,12.8c-18.8,-3.7 -23.2,-14.5 -22,-20.2c1.2,-5.7 8.3,-7.8 8.3,-7.8c0,0 0.1,-4.5 3.3,-10c1.9,-3.3 8.3,-8 8.3,-8l2.6,-10.7c0.1,-0.4 0.6,-0.5 0.9,-0.3z" fill="#ffab19" fill-rule="evenodd" stroke="#001026" stroke-width="1.2" stroke-linecap="butt" stroke-linejoin="miter"/><path d="M246.78626,162.3c8.4,0.6 19.9,-8.5 26.6,2.2c6.7,10.6 -4.8,25 -29,20c-18.6,-3.6 -23.4,-13.9 -22.2,-19.6c1.2,-5.7 8.1,-7.5 8.1,-7.5c8.5,-1.9 9.3,4.4 16.5,4.9z" fill="#ffffff" fill-rule="evenodd" stroke="none" stroke-width="1" stroke-linecap="butt" stroke-linejoin="miter"/><path d="M246.83486,180.46625c-10.32251,-1.1774 -12.76361,-9.11623 -13.18681,-11.89569c-0.11082,-0.52031 0.36246,-0.93995 0.83244,-0.75872c1.40993,0.5437 4.47484,1.3726 9.78212,1.98646c5.90816,0.61718 11.43354,-0.03453 13.40063,-0.39723c0.40618,-0.03025 0.74526,0.32891 0.67815,0.71831c-0.52999,4.82053 -2.47983,10.9 -11.50653,10.34687z" fill="#ffffff" fill-rule="evenodd" stroke="#001026" stroke-width="1.2" stroke-linecap="round" stroke-linejoin="round"/><path d="M219.84039,162.09647c0,0 -7.2,-0.1 -11.9,-3.9" fill="none" fill-rule="evenodd" stroke="#001026" stroke-width="1.2" stroke-linecap="round" stroke-linejoin="round"/><path d="M219.44039,167.99647c0,0 -3.9,1.9 -10.2,1.4" fill="none" fill-rule="evenodd" stroke="#001026" stroke-width="1.2" stroke-linecap="round" stroke-linejoin="round"/><path d="M247.84039,160.69647c0,1.6 -4.2,4.1 -6,3.9c-1.6,-0.1 -3.1,-2.9 -3,-4.3c0.1,-0.7 2.3,-0.9 4.4,-0.9c2,0 4.7,0.1 4.6,1.3z" fill="#001026" fill-rule="evenodd" stroke="#001026" stroke-width="1.2" stroke-linecap="round" stroke-linejoin="round"/><path d="M276.14039,163.79647c3.5,-3.1 12.1,-5.9 12.1,-5.9" fill="none" fill-rule="evenodd" stroke="#001026" stroke-width="1.2" stroke-linecap="round" stroke-linejoin="round"/><path d="M287.54039,167.89647c0,0 -7.4,1.1 -11.7,-0.6" fill="none" fill-rule="evenodd" stroke="#001026" stroke-width="1.2" stroke-linecap="round" stroke-linejoin="round"/><path d="M241.71889,198.36643c0.17443,0.06861 0.85479,-3.36569 5.48565,-5.44779c4.63085,-2.0821 10.64054,1.3632 12.09288,3.98822c1.55403,3.34589 2.58689,6.12762 0.35806,7.63505c-1.79132,1.26537 -14.3403,1.06367 -14.3403,1.06367c0,0 -5.39139,-2.61247 -3.5406,-7.267c1.28877,-3.24112 -0.11321,0.00522 -0.05569,0.02785z" fill="#ffffff" fill-rule="evenodd" stroke="none" stroke-width="1" stroke-linecap="butt" stroke-linejoin="miter"/><path d="M241.84039,142.89647c2.8,1.8 2.7,6.9 -0.2,11.4c-3,4.5 -7.6,6.6 -10.4,4.8c-2.8,-1.8 -2.7,-6.9 0.2,-11.4c2.9,-4.5 7.6,-6.7 10.4,-4.8z" fill="#ffffff" fill-rule="evenodd" stroke="#001026" stroke-width="1.2" stroke-linecap="round" stroke-linejoin="round"/><path d="M234.26862,154.30706c0,-1.1 0.8,-2 1.8,-2c1,0 1.8,0.9 1.8,2c0,1.1 -0.8,2 -1.8,2c-1,0 -1.8,-0.9 -1.8,-2" fill="#001026" fill-rule="evenodd" stroke="none" stroke-width="1" stroke-linecap="butt" stroke-linejoin="miter"/><path d="M267.04039,145.99647c3.1,2.2 2.9,7.9 -0.2,12.3c-3,4.4 -7.4,5.8 -10.7,3.9c-2.7,-1.9 -2.9,-7.3 0.1,-11.7c3,-4.4 7.7,-6.8 10.8,-4.5z" fill="#ffffff" fill-rule="evenodd" stroke="#001026" stroke-width="1.2" stroke-linecap="round" stroke-linejoin="round"/><path d="M258.66156,157.20706c0,-1.1 0.8,-1.9 1.8,-2c1,0 1.8,0.9 1.8,2c0,1.1 -0.8,2 -1.8,2c-1,0 -1.8,-0.9 -1.8,-2" fill="#001026" fill-rule="evenodd" stroke="none" stroke-width="1" stroke-linecap="butt" stroke-linejoin="miter"/><path d="M263.4878,188.40282c2.40918,0.18931 5.12638,3.74837 6.18581,4.10557c0.31093,0.05764 4.40222,-3.62222 6.86482,-5.80295c3.44167,-3.1249 8.76369,1.30298 6.88804,5.52221c-1.81801,3.90831 -9.24704,9.28505 -11.11051,9.96877c-4.23141,1.65987 -11.50091,-5.56818 -16.41976,-10.28528" data-paper-data="{&quot;index&quot;:null}" fill="#ffab19" fill-rule="evenodd" stroke="#001026" stroke-width="1.2" stroke-linecap="round" stroke-linejoin="round"/><path d="M252.1125,209.75867c0,-0.25 0.25,-0.25 0.25,-0.25l0.09457,0.00124c1.19695,0.1208 1.85985,-0.15855 2.62262,0.94648c0,0 0.13868,0.20801 -0.06933,0.34669c-0.20801,0.13868 -0.34669,-0.06934 -0.34669,-0.06934c-0.62244,-0.98403 -1.21587,-0.62316 -2.25635,-0.72631l-0.04482,0.00124c0,0 -0.25,0 -0.25,-0.25z" fill="#ffb51b" fill-rule="nonzero" stroke="none" stroke-width="0.5" stroke-linecap="butt" stroke-linejoin="miter"/><path d="M261.93541,202.72918c0.67082,0.33541 0.33541,1.00623 0.33541,1.00623l-0.14321,-0.11731c0.28578,1.14313 1.58255,2.64469 0.73395,3.77305c-0.19124,0.25428 -0.65811,-0.24051 -0.94817,-0.10977c-0.36876,0.16622 -0.71393,1.15295 -1.25975,1.42826c0.01806,0.0437 0.03726,0.08631 0.05786,0.12753l-0.50688,0.17208l0.13079,0.26157l-0.78651,0.39326c-0.10422,0.05487 -0.22294,0.08593 -0.34891,0.08593c-0.15094,0 -0.29146,-0.04459 -0.40912,-0.12131c-0.1483,0.18492 -0.31566,0.37109 -0.48686,0.54932l0.09598,0.07199l-0.59476,0.79301c-0.13648,0.18614 -0.35674,0.30698 -0.60523,0.30698c-0.30696,0 -0.57085,-0.18441 -0.68693,-0.44849c-0.11948,0.41448 -0.23164,0.81563 -0.59294,0.8388c-2.33938,0.15004 -1.48983,-2.72913 -0.48966,-3.39297c1.69694,-1.12629 3.72346,-1.99905 5.61273,-2.91294c-0.13044,-0.47494 -0.33099,-1.29321 -0.37081,-1.45251l0.25678,-0.91731c0,0 0.33541,-0.67082 1.00623,-0.33541z" fill="#ffab1a" fill-rule="nonzero" stroke="none" stroke-width="0.5" stroke-linecap="butt" stroke-linejoin="miter"/><path d="M256.4,190.2c0.55228,0 1,0.44771 1,1c0,0.23802 -0.08316,0.45663 -0.22201,0.62834c0.14146,0.12237 0.27446,0.26114 0.42202,0.37166c1.22418,0.9169 2.272,1.7687 3.2,3l0.29442,0.55279c0,0 0.44722,0.89443 -0.44721,1.34164c-0.89443,0.44721 -1.34164,-0.44721 -1.34164,-0.44721l-0.10557,-0.24721c-1.09946,-1.47424 -4.43753,-2.9206 -4.99867,-4.54848c-0.00226,-0.00655 -0.00413,-0.01293 -0.00561,-0.01913c-0.11527,-0.14556 -0.19573,-0.34875 -0.19573,-0.6324c0,-1 1,-1 1,-1l0.73118,0.25657c0.17718,-0.15949 0.41166,-0.25657 0.66882,-0.25657z" fill="#ffab19" fill-rule="nonzero" stroke="none" stroke-width="0.5" stroke-linecap="butt" stroke-linejoin="miter"/><path d="M241.37563,198.58856c-0.21854,-0.12141 -0.09713,-0.33995 -0.09713,-0.33995l0.08213,-0.1464c0.2134,-0.46236 0.50433,-0.9083 0.68206,-1.37991c0,0 0.08974,-0.23334 0.32308,-0.14359c0.23334,0.08974 0.14359,0.32308 0.14359,0.32308c-0.18865,0.48263 -0.47577,0.93549 -0.69475,1.40995l-0.09903,0.17969c0,0 -0.12141,0.21854 -0.33995,0.09713z" fill="#ffab1a" fill-rule="nonzero" stroke="none" stroke-width="0.5" stroke-linecap="butt" stroke-linejoin="miter"/></g></g></svg>