<svg version="1.1" xmlns="http://www.w3.org/2000/svg" xmlns:xlink="http://www.w3.org/1999/xlink" width="118.4305" height="62.95145" viewBox="0,0,118.4305,62.95145"><g transform="translate(-158.91084,-176.13613)"><g data-paper-data="{&quot;isPaintingLayer&quot;:true}" fill-rule="nonzero" stroke-width="0.5" stroke-linejoin="miter" stroke-miterlimit="10" stroke-dasharray="" stroke-dashoffset="0" style="mix-blend-mode: normal"><g><g stroke="none" stroke-linecap="butt"><path d="M163.82988,177c0.5,-0.00076 0.50076,0.49924 0.50076,0.49924l0.00051,0.33588c0.00164,1.0841 -0.43971,3.71968 0.36141,4.59985c1.58711,1.74371 4.51906,3.02198 6.47816,4.39566c3.70676,2.60494 7.96513,4.65729 12.03287,6.83826c2.01991,1.083 4.50938,2.00248 6.10336,3.65485c4.92299,5.16301 8.0872,11.22296 12.17824,16.96859c1.57655,0.79414 2.49255,1.99217 3.91769,2.93233c0.92448,0.60987 1.66303,0.58107 2.65194,0.84023c2.22161,0.58222 4.11237,2.36832 6.33216,3.02089c1.82899,0.53769 3.93921,0.61535 5.82481,0.91574c6.98738,-0.01111 13.9756,-0.02406 20.96293,0.00383c6.71773,0.02682 14.35723,0.89731 20.54764,3.84772c5.40233,2.5935 11.1383,4.96983 15.46184,9.29337c0,0 0.35355,0.35355 0,0.70711c-0.35355,0.35355 -0.70711,0 -0.70711,0c-4.24122,-4.24122 -9.88751,-6.55738 -15.18732,-9.09888c-6.03886,-2.91895 -13.55498,-3.72311 -20.11904,-3.74932c-7.01224,-0.028 -14.02477,0.00343 -21.03705,-0.00688c-1.95318,-0.30503 -4.13387,-0.39623 -6.02874,-0.95329c-2.20042,-0.64688 -4.10093,-2.46118 -6.29864,-3.01167c-1.07553,-0.2694 -1.95521,-0.31292 -2.95478,-0.9746c-1.4617,-0.96758 -2.4331,-2.15679 -4.01765,-3.00779c-4.26021,-5.6627 -7.29785,-11.84304 -12.25064,-17.03731c-1.47902,-1.57241 -3.95205,-2.44453 -5.85222,-3.46365c-4.09879,-2.19831 -8.39632,-4.27382 -12.13526,-6.90137c-1.97735,-1.39292 -5.0948,-2.72986 -6.65528,-4.55477c-1.03016,-1.20473 -0.60711,-3.80016 -0.60932,-5.25739l-0.00051,-0.33588c0,0 -0.00076,-0.5 0.49924,-0.50076z" fill="#000000"/><path d="M159.29837,179.59454c0.5,-0.00076 0.37471,0.37319 0.37471,0.37319l0.21059,0.79806c0.00164,1.0841 3.21575,1.99699 4.01688,2.87716c1.58711,1.74371 4.51905,3.02198 6.47815,4.39567c3.70676,2.60494 7.96514,4.65729 12.03287,6.83826c2.01991,1.083 4.50939,2.00248 6.10336,3.65485c4.923,5.16301 8.0872,11.22296 12.17824,16.9686c1.57656,0.79414 2.49255,1.99217 3.91769,2.93232c0.92448,0.60987 1.66304,0.58107 2.65194,0.84024c2.22161,0.58221 4.11236,2.36831 6.33216,3.02089c1.82899,0.53769 3.93921,0.61536 5.82482,0.91575c6.98738,-0.01111 13.97559,-0.02406 20.96293,0.00383c6.71774,0.02682 14.35722,0.89732 20.54763,3.84772c5.40233,2.5935 6.19782,6.69602 10.52136,11.01956c0,0 0.59165,0.53213 0.2381,0.88568c-0.35355,0.35356 -0.70711,-0.17857 -0.70711,-0.17857c-4.24122,-4.24122 -5.18512,-8.28358 -10.48493,-10.82508c-6.03886,-2.91895 -13.55498,-3.72311 -20.11905,-3.74931c-7.01224,-0.028 -14.02477,0.00342 -21.03705,-0.00689c-1.95318,-0.30503 -4.13386,-0.39623 -6.02874,-0.95328c-2.20042,-0.64688 -4.10093,-2.46117 -6.29864,-3.01166c-1.07553,-0.2694 -1.95521,-0.31293 -2.95478,-0.9746c-1.4617,-0.96758 -2.4331,-2.15679 -4.01765,-3.00779c-4.26021,-5.6627 -7.29784,-11.84304 -12.25063,-17.03731c-1.47902,-1.57241 -3.95205,-2.44452 -5.85222,-3.46365c-4.09878,-2.19831 -8.39631,-4.27382 -12.13525,-6.90138c-1.97735,-1.39292 -5.0948,-2.72986 -6.65527,-4.55478c-1.03016,-1.20473 -3.88442,-1.44722 -3.88664,-2.90445l-0.33664,-0.75604c0,0 -0.12681,-1.04622 0.37319,-1.04698z" fill="#ff0000"/></g><path d="M174.67111,188.59951l2.3133,-3.32097l0.16732,-0.20616l-1.31783,-1.12403l6.43411,-5.96899l-3.44961,4.84496l1.66666,1.43411z" data-paper-data="{&quot;index&quot;:null}" fill="#fbff00" stroke="#000000" stroke-linecap="round"/><path d="M177.94505,210.44262l0.74033,-3.97896l0.06757,-0.25678l-1.6638,-0.48155l3.40491,-8.08908l-1.14817,5.83568l2.10938,0.62046z" data-paper-data="{&quot;index&quot;:null}" fill="#fbff00" stroke="#000000" stroke-linecap="round"/><path d="M194.82931,202.85882l0.96769,-3.92986l0.08221,-0.25247l-1.63339,-0.57634l3.86398,-7.88012l-1.48152,5.76008l2.07025,0.74061z" data-paper-data="{&quot;index&quot;:null}" fill="#fbff00" stroke="#000000" stroke-linecap="round"/><path d="M206.17847,215.72459l2.93538,-2.78635l0.20545,-0.1682l-1.06413,-1.36665l7.50547,-4.54913l-4.35563,4.04993l1.34328,1.7407z" data-paper-data="{&quot;index&quot;:null}" fill="#fbff00" stroke="#000000" stroke-linecap="round"/><path d="M200.67111,233.09951l2.3133,-3.32097l0.16732,-0.20616l-1.31783,-1.12403l6.43411,-5.96899l-3.44961,4.84496l1.66666,1.43411z" data-paper-data="{&quot;index&quot;:null}" fill="#fbff00" stroke="#000000" stroke-linecap="round"/><path d="M225.95405,217.00842l1.66666,-1.43411l-3.44961,-4.84496l6.43411,5.96899l-1.31783,1.12403l0.16732,0.20616l2.3133,3.32097z" data-paper-data="{&quot;index&quot;:null}" fill="#fbff00" stroke="#000000" stroke-linecap="round"/><path d="M252.70405,232.75842l1.66667,-1.43411l-3.44961,-4.84496l6.43411,5.96899l-1.31783,1.12403l0.16732,0.20616l2.3133,3.32097z" data-paper-data="{&quot;index&quot;:null}" fill="#fbff00" stroke="#000000" stroke-linecap="round"/><path d="M242.67111,221.09951l2.3133,-3.32097l0.16732,-0.20616l-1.31783,-1.12403l6.43411,-5.96899l-3.44961,4.84496l1.66666,1.43411z" data-paper-data="{&quot;index&quot;:null}" fill="#fbff00" stroke="#000000" stroke-linecap="round"/><path d="M234.01817,237.56274l-1.93451,-3.55498l-0.10948,-0.2419l-1.59497,0.67543l-2.45828,-8.42517l2.7888,5.25319l2.02838,-0.8486z" data-paper-data="{&quot;index&quot;:null}" fill="#fbff00" stroke="#000000" stroke-linecap="round"/></g></g></g></svg>