<svg version="1.1" xmlns="http://www.w3.org/2000/svg" xmlns:xlink="http://www.w3.org/1999/xlink" width="89.62026" height="107.97553" viewBox="0,0,89.62026,107.97553"><g transform="translate(-196.87975,-125.39326)"><g data-paper-data="{&quot;isPaintingLayer&quot;:true}" stroke-miterlimit="10" stroke-dasharray="" stroke-dashoffset="0" style="mix-blend-mode: normal"><g data-paper-data="{&quot;index&quot;:null}" fill-rule="evenodd"><path d="M274.8422,194.3c3.1,-7.8 1.4,-14.8 5.7,-14.4c4.4,0.4 9.5,12.1 -0.1,20.7c-8.9,7.9 -18,5 -21.6,2.9c-3.5,-2.2 -0.8,-3.4 -0.2,-4.2c0.6,-0.8 11.8,6.3 16.2,-5z" fill="#ffab19" stroke="#001026" stroke-width="1.2" stroke-linecap="round" stroke-linejoin="round"/><path d="M280.04222,180.4c2.5,-0.4 4.7,3.2 5.2,6.7c0.2,3.6 -0.4,5.7 -1.1,7.4c-0.1,-0.7 -1,-3.1 -3.9,-3.6c-2.4,-0.4 -4,1.6 -4,1.6c0,0 1,-3 1.5,-7.4c0.4,-2.7 0.3,-4.3 2.3,-4.7z" fill="#ffffff" stroke="none" stroke-width="1" stroke-linecap="butt" stroke-linejoin="miter"/></g><path d="M262.80969,200.32416c3.48787,3.49782 0.47692,6.87187 -1.01526,9.27466c-2.08905,3.36391 -4.32483,5.22167 -4.05165,6.39016c0.93337,3.99234 3.92806,8.01625 3.53359,11.60016c-0.27816,2.32436 -10.26218,4.86392 -12.84958,4.33917c-3.23994,-0.68028 -5.14208,-7.93782 4.02124,-9.15585c0,0 -5.34314,-7.48003 -4.04954,-11.17145c1.8285,-5.35692 4.78129,-8.10119 5.4983,-8.9877c2.19657,-2.46477 5.85374,-5.27102 8.9129,-2.28915z" data-paper-data="{&quot;index&quot;:null}" fill="#ffab19" fill-rule="evenodd" stroke="#001026" stroke-width="1.2" stroke-linecap="round" stroke-linejoin="round"/><path d="M241.84222,188.7c4,6.6 0.8,17.3 -6.2,19.2c-5.4,1.5 -11.9,1.4 -11.5,-3.4c0.4,-4.9 7.4,-2.9 9.7,-4.1c2.4,-1.3 2.6,-9.7 2.9,-11.9c0.3,-2.3 3.6,-2.1 5.1,0.2z" data-paper-data="{&quot;index&quot;:null}" fill="#ffab19" fill-rule="evenodd" stroke="#001026" stroke-width="1.2" stroke-linecap="round" stroke-linejoin="round"/><g data-paper-data="{&quot;index&quot;:null}" fill-rule="evenodd"><path d="M245.55723,205.64068c-1.22445,-0.86643 -3.0902,-3.21569 -4.75604,-5.57047c-1.3521,-1.86328 -2.854,-5.52311 -2.854,-5.52311c-0.96886,-2.47412 -1.70151,-7.25568 1.59999,-7.24707c2.20193,0.03906 4.19286,-0.3162 7.57771,-0.91013c5.96448,-1.36565 7.1308,-2.59841 9.65446,1.83343c4.72805,8.17225 10.88908,13.90388 2.82511,18.92905c-1.96602,1.25491 -5.10942,3.34273 -7.85298,5.41948c-1.94663,1.95464 1.16572,5.97002 3.33135,8.31097c0.9301,1.07466 0.9744,2.67405 -0.09472,3.80407c-7.10064,7.29937 -9.23059,9.85932 -12.11533,6.83802c-3.91482,-4.09319 1.96938,-8.35772 1.96938,-8.35772c0,0 -5.00579,-7.36424 -4.49737,-10.67959c0.61114,-3.21815 5.21245,-6.84692 5.21245,-6.84692z" fill="#ffab19" stroke="#001026" stroke-width="1.2" stroke-linecap="round" stroke-linejoin="round"/><path d="M240.84517,199.07151c0,0 -1.96848,-2.44645 2.25512,-5.26444c4.41799,-3.02346 6.20593,0.12824 8.07168,2.4775c2.08505,3.04344 0.12734,4.59824 -1.82206,6.45292c-1.55785,1.54372 -3.02406,2.78478 -3.02406,2.78478c0,0 -3.15695,-2.01337 -5.48069,-6.45075z" fill="#ffffff" stroke="none" stroke-width="1" stroke-linecap="butt" stroke-linejoin="miter"/></g><path d="M248.50416,184.04126c6.79083,0.57516 17.01958,1.25557 18.56966,5.52842c0.71812,1.85049 1.5912,10.97944 -0.14108,14.92649c-1.92757,4.19576 -8.76771,3.12686 -8.69631,-1.52124c0.00965,-3.28937 0.06836,-8.79178 -0.18035,-8.98707c-0.96815,-0.55918 -5.43498,-0.24699 -7.16898,-1.93022" data-paper-data="{&quot;index&quot;:null}" fill="#ffab19" fill-rule="evenodd" stroke="#001026" stroke-width="1.2" stroke-linecap="round" stroke-linejoin="round"/><path d="M229.73376,141.20084c2.04629,-1.12369 4.25199,-2.09059 6.96573,-2.80866c4.51122,-1.33374 9.31928,-1.18361 9.31928,-1.18361l8.8873,-11.39455c0.31361,-0.31882 0.88385,-0.19702 0.91886,0.2138l3.81348,17.61469c-0.82686,-0.56241 14.17571,8.67464 11.15275,21.7602c-3.02296,13.08556 -15.65569,22.80328 -34.64028,25.39471c-18.98459,2.59143 -26.64674,-6.20012 -27.35847,-11.98142c-0.71173,-5.7813 5.32473,-10.06862 5.32473,-10.06862c0,0 -1.36354,-4.28961 -0.11837,-10.52976c0.72818,-3.73762 5.25992,-10.25784 5.25992,-10.25784l-1.00743,-10.96518c-0.03501,-0.41082 0.40562,-0.66745 0.75424,-0.57545z" fill="#ffab19" fill-rule="evenodd" stroke="#001026" stroke-width="1.2" stroke-linecap="butt" stroke-linejoin="miter"/><path d="M231.72809,168.31767c8.1412,-2.15425 16.07204,-14.48963 25.87769,-6.53795c9.77325,7.85707 3.55979,25.2065 -20.95469,28.31785c-18.76297,2.62124 -26.64152,-5.56769 -27.35325,-11.34898c-0.71173,-5.7813 5.23273,-9.72 5.23273,-9.72c7.42573,-4.55176 10.22397,1.1491 17.19751,-0.71091z" fill="#ffffff" fill-rule="evenodd" stroke="none" stroke-width="1" stroke-linecap="butt" stroke-linejoin="miter"/><path d="M210.00143,175.86502c0,0 -6.84393,2.23843 -12.52167,0.16641" fill="none" fill-rule="evenodd" stroke="#001026" stroke-width="1.2" stroke-linecap="round" stroke-linejoin="round"/><path d="M211.53481,181.57631c0,0 -3.07392,3.06121 -9.19602,4.62959" fill="none" fill-rule="evenodd" stroke="#001026" stroke-width="1.2" stroke-linecap="round" stroke-linejoin="round"/><path d="M236.43708,168.46765c0.51845,1.51368 -2.64486,5.23973 -4.41255,5.63378c-1.54608,0.42385 -3.87244,-1.73904 -4.23148,-3.09591c-0.13222,-0.69464 1.88428,-1.59671 3.87097,-2.27718c1.89209,-0.64807 4.47882,-1.42835 4.77305,-0.26069z" fill="#001026" fill-rule="evenodd" stroke="#001026" stroke-width="1.2" stroke-linecap="round" stroke-linejoin="round"/><path d="M263.81468,159.23028c2.30666,-4.06686 9.53536,-9.50247 9.53536,-9.50247" fill="none" fill-rule="evenodd" stroke="#001026" stroke-width="1.2" stroke-linecap="round" stroke-linejoin="round"/><path d="M275.92814,159.4151c0,0 -6.6443,3.43849 -11.26316,3.22355" fill="none" fill-rule="evenodd" stroke="#001026" stroke-width="1.2" stroke-linecap="round" stroke-linejoin="round"/><path d="M224.59302,150.57223c3.23218,0.79559 4.79015,5.65283 3.50476,10.84973c-1.38,5.22931 -5.05134,8.70655 -8.28352,7.91096c-3.23218,-0.79559 -4.79015,-5.65283 -3.50476,-10.84973c1.28539,-5.1969 5.01893,-8.80115 8.28352,-7.91096z" fill="#ffffff" fill-rule="evenodd" stroke="#001026" stroke-width="1.2" stroke-linecap="round" stroke-linejoin="round"/><path d="M219.7349,166.54603c-0.35644,-1.04065 0.10878,-2.15132 1.05482,-2.47535c0.94604,-0.32403 1.99451,0.26818 2.35094,1.30883c0.35644,1.04065 -0.10877,2.15132 -1.05481,2.47535c-0.94604,0.32403 -1.99452,-0.26819 -2.35095,-1.30884" fill="#001026" fill-rule="evenodd" stroke="none" stroke-width="1" stroke-linecap="butt" stroke-linejoin="miter"/><path d="M249.43788,145.33936c3.64561,1.0768 5.30339,6.53406 3.79639,11.70117c-1.4124,5.1347 -5.12135,7.88491 -8.85897,7.15672c-3.16998,-0.9226 -5.10897,-5.96644 -3.69657,-11.10114c1.4124,-5.1347 5.08114,-8.92816 8.75915,-7.75675z" fill="#ffffff" fill-rule="evenodd" stroke="#001026" stroke-width="1.2" stroke-linecap="round" stroke-linejoin="round"/><path d="M243.72575,162.38876c-0.35644,-1.04065 0.14118,-2.05671 1.05482,-2.47535c0.94604,-0.32403 1.99451,0.26818 2.35094,1.30883c0.35644,1.04065 -0.10877,2.15132 -1.05481,2.47535c-0.94604,0.32403 -1.99452,-0.26818 -2.35095,-1.30883" fill="#001026" fill-rule="evenodd" stroke="none" stroke-width="1" stroke-linecap="butt" stroke-linejoin="miter"/><path d="M256.06182,201.08374c3.48787,3.49782 0.47692,6.87186 -1.01526,9.27465c-2.08905,3.3639 -4.32484,5.22167 -4.05165,6.39016c0.93337,3.99235 3.92806,8.01626 3.53359,11.60016c-0.27816,2.32435 -10.26218,4.86393 -12.84958,4.33918c-3.23994,-0.68028 -5.14209,-7.93782 4.02123,-9.15586c0,0 -5.34315,-7.48003 -4.04954,-11.17145c1.8285,-5.35692 4.7813,-8.10119 5.49831,-8.9877c2.19656,-2.46477 5.85374,-5.27102 8.9129,-2.28915z" data-paper-data="{&quot;index&quot;:null}" fill="#ffab19" fill-rule="evenodd" stroke="#001026" stroke-width="1.2" stroke-linecap="round" stroke-linejoin="round"/><path d="M256.97478,226.76084c-0.63278,0.18281 -1.37016,0.13332 -1.69979,-0.32149c-0.21261,-0.29335 -0.39187,-0.66707 -0.39594,-1.11373l-0.32194,-0.73717l0.05732,-0.03343c-0.05654,-0.06661 -0.10973,-0.13622 -0.15888,-0.20945c-0.62422,-0.92998 -0.15091,-2.06501 0.10034,-3.0183c-0.0899,-0.26975 -0.49624,-0.22635 -0.61069,-0.52273l-0.34065,-0.17783c-0.01957,-0.01425 -0.00447,-0.21691 -0.02292,-0.23251l-0.322,-0.29109c-0.01586,-0.0013 0.07067,0.09979 0.05481,0.09849l-0.074,-0.07466l-0.04823,-0.04872c-0.28232,-0.06224 0.04328,-0.26085 -0.09392,-0.50613l-0.55733,-0.68483c-0.09191,-0.15122 -0.36668,-0.29462 -0.36668,-0.48451c0,-0.02022 -0.01647,-0.21094 -0.01528,-0.23086c-0.06149,-0.08421 -0.01138,-0.02113 -0.05532,-0.11457c-0.00107,-0.0018 -0.12103,-0.19017 -0.1221,-0.19197l-0.13579,-0.43842l-0.10614,-0.35992c-0.09191,-0.15122 -0.14484,-0.32875 -0.14484,-0.51864c0,-0.19272 0.05452,-0.37272 0.14898,-0.52539c0.04579,-0.50983 0.47421,-0.90939 0.99595,-0.90939c0.24289,0 0.46556,0.0866 0.63881,0.2306l0.79153,0.64762l-0.128,0.15645c0.03217,0.01978 0.06401,0.03967 0.09553,0.0597l0.59472,0.16992c0.10989,0.02871 0.21243,0.07565 0.30417,0.13739c0.40342,0.04068 0.79866,0.19867 1.09928,0.49864c0.5105,0.5094 0.52521,1.34345 0.80127,2.00971c0.44058,1.06333 2.84177,5.6387 2.35438,6.74537c-0.93773,2.12923 -1.60082,1.82866 -2.31664,0.99189z" fill="#ffab19" fill-rule="nonzero" stroke="none" stroke-width="0.5" stroke-linecap="butt" stroke-linejoin="miter"/><path d="M241.07082,180.86459c0.33541,0.67082 -0.33541,1.00623 -0.33541,1.00623l-0.45687,0.22554c-2.76249,1.105 -5.46674,2.33243 -8.37452,2.84639c-1.76553,0.31207 -4.4411,-0.71821 -5.85403,0.45725c0,0 -0.6,0.45 -1.05,-0.15c-0.45,-0.6 0.15,-1.05 0.15,-1.05c2.03452,-1.42925 4.25582,-0.31361 6.54597,-0.74275c2.78513,-0.52189 5.36767,-1.69048 8.02548,-2.75361l0.34313,-0.17446c0,0 0.67082,-0.33541 1.00623,0.33541z" fill="#001026" fill-rule="nonzero" stroke="none" stroke-width="0.5" stroke-linecap="butt" stroke-linejoin="miter"/></g></g></svg>