<svg version="1.1" xmlns="http://www.w3.org/2000/svg" xmlns:xlink="http://www.w3.org/1999/xlink" width="123.1746" height="51.5165" viewBox="0,0,123.1746,51.5165"><g transform="translate(-157.19715,-181.83241)"><g data-paper-data="{&quot;isPaintingLayer&quot;:true}" fill-rule="nonzero" stroke="none" stroke-width="0.5" stroke-linecap="butt" stroke-linejoin="miter" stroke-miterlimit="10" stroke-dasharray="" stroke-dashoffset="0" style="mix-blend-mode: normal"><path d="M161.78238,181.83575c0.49764,-0.04857 0.54621,0.44905 0.54621,0.44905l0.03264,0.33429c0.10531,1.07897 -0.08194,3.74469 0.7997,4.5442c1.74661,1.58392 4.78737,2.57592 6.86888,3.75592c3.93891,2.23847 8.37405,3.87413 12.63174,5.65606c2.11423,0.88484 4.68023,1.56201 6.42494,3.05435c5.39422,4.66849 9.12352,10.39803 13.74533,15.72604c1.64528,0.63971 2.67166,1.74464 4.18019,2.54419c0.97857,0.51865 1.71098,0.41935 2.72014,0.58274c2.26711,0.36707 4.32003,1.96415 6.59206,2.40142c1.87204,0.3603 3.98,0.23577 5.88569,0.35444c6.95429,-0.67935 13.90923,-1.36062 20.8672,-2.00114c6.6895,-0.61581 14.37724,-0.47997 20.82145,1.86485c5.62561,2.06492 11.56257,3.88175 16.2798,7.77195c0,0 0.38575,0.31811 0.06763,0.70387c-0.31811,0.38575 -0.70387,0.06763 -0.70387,0.06763c-4.62742,-3.81613 -10.46935,-5.58165 -15.98794,-7.60461c-6.29035,-2.32799 -13.84893,-2.40961 -20.3854,-1.80789c-6.98277,0.6428 -13.96015,1.34479 -20.94127,2.0052c-1.9734,-0.11683 -4.15281,0.00096 -6.09228,-0.37231c-2.2522,-0.43346 -4.31753,-2.05767 -6.55781,-2.39544c-1.09637,-0.1653 -1.97617,-0.12448 -3.03445,-0.68753c-1.54755,-0.82335 -2.62822,-1.9142 -4.28691,-2.60974c-4.78228,-5.22928 -8.3971,-11.09076 -13.82397,-15.78752c-1.62263,-1.42375 -4.16773,-2.05534 -6.15667,-2.88805c-4.29025,-1.79621 -8.76659,-3.45118 -12.73969,-5.70908c-2.10151,-1.19741 -5.33254,-2.23007 -7.0604,-3.89736c-1.14066,-1.10068 -0.96778,-3.72468 -1.10936,-5.17501l-0.03264,-0.33429c0,0 -0.04857,-0.49764 0.44905,-0.54621z" data-paper-data="{&quot;index&quot;:null}" fill="#000000"/><path d="M157.5198,184.85181c0.49764,-0.04857 0.40869,0.33564 0.40869,0.33564l0.28596,0.77426c0.10531,1.07897 3.392,1.68027 4.27365,2.47979c1.74661,1.58392 4.78736,2.57591 6.86887,3.75593c3.93891,2.23847 8.37406,3.87413 12.63174,5.65606c2.11423,0.88484 4.68024,1.56201 6.42494,3.05435c5.39423,4.66849 9.12352,10.39803 13.74534,15.72605c1.64529,0.63971 2.67166,1.74464 4.18019,2.54418c0.97857,0.51865 1.71099,0.41935 2.72015,0.58275c2.26711,0.36706 4.32002,1.96414 6.59206,2.40142c1.87204,0.3603 3.98,0.23578 5.8857,0.35445c6.95429,-0.67935 13.90922,-1.36062 20.8672,-2.00114c6.68951,-0.61581 14.37723,-0.47996 20.82144,1.86485c5.62561,2.06492 6.80983,6.07255 11.52707,9.96275c0,0 0.63984,0.4731 0.32172,0.85885c-0.31811,0.38576 -0.72095,-0.11012 -0.72095,-0.11012c-4.62742,-3.81613 -5.95361,-7.74969 -11.4722,-9.77264c-6.29035,-2.32799 -13.84893,-2.40961 -20.38541,-1.80788c-6.98277,0.6428 -13.96015,1.34478 -20.94127,2.00519c-1.9734,-0.11683 -4.1528,0.00096 -6.09228,-0.3723c-2.2522,-0.43346 -4.31753,-2.05766 -6.55781,-2.39543c-1.09637,-0.1653 -1.97618,-0.12449 -3.03445,-0.68753c-1.54755,-0.82335 -2.62822,-1.9142 -4.28691,-2.60974c-4.78228,-5.22928 -8.39709,-11.09076 -13.82396,-15.78752c-1.62263,-1.42375 -4.16774,-2.05533 -6.15667,-2.88805c-4.29024,-1.79621 -8.76658,-3.45118 -12.73968,-5.7091c-2.10151,-1.19741 -5.33254,-2.23007 -7.0604,-3.89737c-1.14066,-1.10068 -4.00503,-1.06907 -4.14661,-2.5194l-0.40741,-0.72038c0,0 -0.2263,-1.02929 0.27134,-1.07788z" data-paper-data="{&quot;index&quot;:null}" fill="#ff0000"/></g></g></svg>