<svg version="1.1" xmlns="http://www.w3.org/2000/svg" xmlns:xlink="http://www.w3.org/1999/xlink" width="81.5" height="79.51141" viewBox="0,0,81.5,79.51141"><g transform="translate(-192.32103,-130.50077)"><g data-paper-data="{&quot;isPaintingLayer&quot;:true}" stroke-miterlimit="10" stroke-dasharray="" stroke-dashoffset="0" style="mix-blend-mode: normal"><g data-paper-data="{&quot;index&quot;:null}" fill-rule="evenodd"><path d="" fill="#ffab19" stroke="#001026" stroke-width="1.2" stroke-linecap="round" stroke-linejoin="round"/><path d="" fill="#ffffff" stroke="none" stroke-width="1" stroke-linecap="butt" stroke-linejoin="miter"/></g><path d="" data-paper-data="{&quot;index&quot;:null}" fill="#ffab19" fill-rule="evenodd" stroke="#001026" stroke-width="1.2" stroke-linecap="round" stroke-linejoin="round"/><path d="" fill="#ffffff" fill-rule="evenodd" stroke="none" stroke-width="0" stroke-linecap="butt" stroke-linejoin="miter"/><path d="M221.29117,189.13957c-1.08103,0.72896 -2.78019,1.62498 -4.38767,2.56094c-2.64857,1.57323 -7.75338,3.27644 -7.40701,-2.02639c0.22209,-4.26622 4.22673,-6.44862 8.78594,-9.15299c2.43709,-1.33812 5.30896,-2.92317 7.79167,-0.86013c2.8095,2.31445 10.02089,10.80008 4.6394,14.89147c-0.34561,0.2199 -0.6082,0.01596 -0.90124,0.05736c-1.36033,0.1922 -2.27217,-0.95733 -3.22352,-1.68971c-1.43849,-1.10741 -2.85466,-1.49527 -3.79075,-3.2333c-0.33861,-0.47471 -0.92862,-0.62262 -1.50683,-0.54724z" data-paper-data="{&quot;index&quot;:null}" fill="#ffab19" fill-rule="evenodd" stroke="#001026" stroke-width="1.2" stroke-linecap="round" stroke-linejoin="round"/><path d="M254.92499,197.9538c-1.1,-0.7 -2.6,-1.9 -4.1,-3c-2.5,-1.8 -6.1,-5.8 -1.1,-7.6c4,-1.5 7.6,1.3 11.9,4.4c2.2,1.7 4.8,3.7 3.9,6.8c-1,3.5 -5.9,13.5 -11.8,10.2c-4.3,-2.9 -0.9,-6.4 1.3,-9.2c0.3,-0.5 0.2,-1.1 -0.1,-1.6z" data-paper-data="{&quot;index&quot;:null}" fill="#ffab19" fill-rule="evenodd" stroke="#001026" stroke-width="1.2" stroke-linecap="round" stroke-linejoin="round"/><path d="M234.72103,139c2.3,-0.4 4.7,-0.6 7.5,-0.4c4.7,0.2 9.2,1.9 9.2,1.9l12.1,-7.9c0.4,-0.2 0.9,0.1 0.8,0.5l-2.1,17.9c-0.6,-0.8 10.6,12.8 3.5,24.2c-7.1,11.4 -22.2,16.5 -41,12.8c-18.8,-3.7 -23.2,-14.5 -22,-20.2c1.2,-5.7 8.3,-7.8 8.3,-7.8c0,0 0.1,-4.5 3.3,-10c1.9,-3.3 8.3,-8 8.3,-8l2.6,-10.7c0.1,-0.4 0.6,-0.5 0.9,-0.3z" fill="#ffab19" fill-rule="evenodd" stroke="#001026" stroke-width="1.2" stroke-linecap="butt" stroke-linejoin="miter"/><path d="M227.82103,165.3c8.4,0.6 19.9,-8.5 26.6,2.2c6.7,10.6 -4.8,25 -29,20c-18.6,-3.6 -23.4,-13.9 -22.2,-19.6c1.2,-5.7 8.1,-7.5 8.1,-7.5c8.5,-1.9 9.3,4.4 16.5,4.9z" fill="#ffffff" fill-rule="evenodd" stroke="none" stroke-width="1" stroke-linecap="butt" stroke-linejoin="miter"/><path d="M204.82103,165.4c0,0 -7.2,-0.1 -11.9,-3.9" fill="none" fill-rule="evenodd" stroke="#001026" stroke-width="1.2" stroke-linecap="round" stroke-linejoin="round"/><path d="M204.42103,171.3c0,0 -3.9,1.9 -10.2,1.4" fill="none" fill-rule="evenodd" stroke="#001026" stroke-width="1.2" stroke-linecap="round" stroke-linejoin="round"/><path d="M232.82103,164c0,1.6 -4.2,4.1 -6,3.9c-1.6,-0.1 -3.1,-2.9 -3,-4.3c0.1,-0.7 2.3,-0.9 4.4,-0.9c2,0 4.7,0.1 4.6,1.3z" fill="#001026" fill-rule="evenodd" stroke="#001026" stroke-width="1.2" stroke-linecap="round" stroke-linejoin="round"/><path d="M261.12103,167.1c3.5,-3.1 12.1,-5.9 12.1,-5.9" fill="none" fill-rule="evenodd" stroke="#001026" stroke-width="1.2" stroke-linecap="round" stroke-linejoin="round"/><path d="M272.52102,171.2c0,0 -7.4,1.1 -11.7,-0.6" fill="none" fill-rule="evenodd" stroke="#001026" stroke-width="1.2" stroke-linecap="round" stroke-linejoin="round"/><g fill-rule="evenodd"><path d="M231.84151,139.50964c3.91222,2.515 3.7725,9.64084 -0.27944,15.92834c-4.19167,6.2875 -10.61889,9.22167 -14.53111,6.70667c-3.91222,-2.515 -3.7725,-9.64084 0.27944,-15.92834c4.05195,-6.2875 10.61889,-9.36139 14.53111,-6.70667z" fill="#ffffff" stroke="#001026" stroke-width="1.2" stroke-linecap="round" stroke-linejoin="round"/><path d="M217.86929,154.18047c0,-1.53694 1.11778,-2.79444 2.515,-2.79444c1.39722,0 2.515,1.2575 2.515,2.79444c0,1.53694 -1.11778,2.79444 -2.515,2.79444c-1.39722,0 -2.515,-1.2575 -2.515,-2.79444" fill="#001026" stroke="none" stroke-width="1" stroke-linecap="butt" stroke-linejoin="miter"/></g><g fill-rule="evenodd"><path d="M257.78372,143.75875c4.47549,2.91593 4.18674,10.47085 -0.28874,16.30272c-4.33111,5.83187 -10.68342,7.68746 -15.44764,5.16916c-3.898,-2.51831 -4.18674,-9.6756 0.14437,-15.50747c4.33111,-5.83187 11.11653,-9.01289 15.59201,-5.96441z" fill="#ffffff" stroke="#001026" stroke-width="1.2" stroke-linecap="round" stroke-linejoin="round"/><path d="M243.05793,157.41062c0,-1.45797 1.15496,-2.51831 2.59867,-2.65085c1.4437,0 2.59867,1.19288 2.59867,2.65085c0,1.45797 -1.15496,2.65085 -2.59867,2.65085c-1.4437,0 -2.59867,-1.19288 -2.59867,-2.65085" fill="#001026" stroke="none" stroke-width="1" stroke-linecap="butt" stroke-linejoin="miter"/></g><path d="M233.23697,189.66049c2.21954,0.0921 6.92548,0.03086 10.35567,-0.42963c6.05329,-1.10518 1.67919,-0.87423 4.2014,2.90181c0.10101,0.16393 0.20784,0.3262 0.31949,0.48712c-3.89992,0.09558 -7.75738,0.80456 -11.68984,0.81361c-2.14498,0.00494 -4.29013,0.02262 -6.43498,0c-0.55421,-0.00585 -1.31964,-0.42195 -1.98877,-0.54601c0.22948,-1.19778 2.43538,-3.32246 3.9467,-3.28065z" fill="#ffab19" fill-rule="evenodd" stroke="none" stroke-width="0" stroke-linecap="round" stroke-linejoin="round"/><path d="M230.8554,193.49408c0,-0.35835 0.17122,-0.54548 0.35005,-0.6432c0.61331,-1.59187 1.39341,-2.85702 2.68886,-4.04945c0,0 0.55287,-0.50679 1.05966,0.04607c0.50679,0.55287 -0.04607,1.05966 -0.04607,1.05966c-0.89036,0.81235 -1.47953,1.65073 -1.94723,2.64262c3.2985,-0.59912 6.6405,0.27831 10.04753,-0.23517c1.05003,-0.15825 2.79367,0.06516 3.5779,-0.57825l0.18637,-0.1077c0.01335,-0.201 0.10768,-0.66879 0.69347,-0.71063c0.50048,-0.03575 0.69005,0.28724 0.76071,0.50497c0.24825,0.12226 0.41907,0.3778 0.41907,0.67323c0,0.41421 -0.33579,0.75 -0.75,0.75c-0.03539,0 -0.0702,-0.00245 -0.10429,-0.00719l-0.41758,0.37333c0,0 -0.1447,0.02412 -0.31677,-0.01298c-3.83256,2.11523 -9.96338,0.05165 -14.0002,0.85902c0,0 -0.45853,0.09171 -0.72388,-0.23176l-0.72761,0.41743c0,0 -0.75,0 -0.75,-0.75z" fill="#000000" fill-rule="nonzero" stroke="none" stroke-width="0.5" stroke-linecap="butt" stroke-linejoin="miter"/><path d="M227.22364,176.797c0,4.06743 -1.99212,7.36474 -4.44953,7.36474c-2.45741,0 -4.44953,-3.2973 -4.44953,-7.36474c0,-4.06743 1.99212,-7.36474 4.44953,-7.36474c2.45741,0 4.44953,3.2973 4.44953,7.36474z" fill="#000000" fill-rule="nonzero" stroke="#001026" stroke-width="1.2" stroke-linecap="butt" stroke-linejoin="miter"/></g></g></svg>