<svg version="1.1" xmlns="http://www.w3.org/2000/svg" xmlns:xlink="http://www.w3.org/1999/xlink" width="79.64838" height="84.61892" viewBox="0,0,79.64838,84.61892"><g transform="translate(-196.87976,-125.39327)"><g data-paper-data="{&quot;isPaintingLayer&quot;:true}" stroke-miterlimit="10" stroke-dasharray="" stroke-dashoffset="0" style="mix-blend-mode: normal"><g data-paper-data="{&quot;index&quot;:null}" fill-rule="evenodd"><path d="" fill="#ffab19" stroke="#001026" stroke-width="1.2" stroke-linecap="round" stroke-linejoin="round"/><path d="" fill="#ffffff" stroke="none" stroke-width="1" stroke-linecap="butt" stroke-linejoin="miter"/></g><path d="" data-paper-data="{&quot;index&quot;:null}" fill="#ffab19" fill-rule="evenodd" stroke="#001026" stroke-width="1.2" stroke-linecap="round" stroke-linejoin="round"/><path d="" fill="#ffffff" fill-rule="evenodd" stroke="none" stroke-width="0" stroke-linecap="butt" stroke-linejoin="miter"/><path d="M221.29117,189.13957c-1.08103,0.72896 -2.78019,1.62498 -4.38767,2.56094c-2.64857,1.57323 -7.75338,3.27644 -7.40701,-2.02639c0.22209,-4.26622 4.22673,-6.44862 8.78594,-9.15299c2.43709,-1.33812 5.30896,-2.92317 7.79167,-0.86013c2.8095,2.31445 10.02089,10.80008 4.6394,14.89147c-0.34561,0.2199 -0.6082,0.01596 -0.90124,0.05736c-1.36033,0.1922 -2.27217,-0.95733 -3.22352,-1.68971c-1.43849,-1.10741 -2.85466,-1.49527 -3.79075,-3.2333c-0.33861,-0.47471 -0.92862,-0.62262 -1.50683,-0.54724z" data-paper-data="{&quot;index&quot;:null}" fill="#ffab19" fill-rule="evenodd" stroke="#001026" stroke-width="1.2" stroke-linecap="round" stroke-linejoin="round"/><path d="M254.92499,197.9538c-1.1,-0.7 -2.6,-1.9 -4.1,-3c-2.5,-1.8 -6.1,-5.8 -1.1,-7.6c4,-1.5 7.6,1.3 11.9,4.4c2.2,1.7 4.8,3.7 3.9,6.8c-1,3.5 -5.9,13.5 -11.8,10.2c-4.3,-2.9 -0.9,-6.4 1.3,-9.2c0.3,-0.5 0.2,-1.1 -0.1,-1.6z" data-paper-data="{&quot;index&quot;:null}" fill="#ffab19" fill-rule="evenodd" stroke="#001026" stroke-width="1.2" stroke-linecap="round" stroke-linejoin="round"/><path d="M233.23697,189.66049c2.21954,0.0921 6.92548,0.03086 10.35567,-0.42963c6.05329,-1.10518 1.67919,-0.87423 4.2014,2.90181c0.10101,0.16393 0.20784,0.3262 0.31949,0.48712c-3.89992,0.09558 -7.75738,0.80456 -11.68984,0.81361c-2.14498,0.00494 -4.29013,0.02262 -6.43498,0c-0.55421,-0.00585 -1.31964,-0.42195 -1.98877,-0.54601c0.22948,-1.19778 2.43538,-3.32246 3.9467,-3.28065z" fill="#ffab19" fill-rule="evenodd" stroke="none" stroke-width="0" stroke-linecap="round" stroke-linejoin="round"/><path d="M230.8554,193.49408c0,-0.35835 0.17122,-0.54548 0.35005,-0.6432c0.61331,-1.59187 1.39341,-2.85702 2.68886,-4.04945c0,0 0.55287,-0.50679 1.05966,0.04607c0.50679,0.55287 -0.04607,1.05966 -0.04607,1.05966c-0.89036,0.81235 -1.47953,1.65073 -1.94723,2.64262c3.2985,-0.59912 6.6405,0.27831 10.04753,-0.23517c1.05003,-0.15825 2.79367,0.06516 3.5779,-0.57825l0.18637,-0.1077c0.01335,-0.201 0.10768,-0.66879 0.69347,-0.71063c0.50048,-0.03575 0.69005,0.28724 0.76071,0.50497c0.24825,0.12226 0.41907,0.3778 0.41907,0.67323c0,0.41421 -0.33579,0.75 -0.75,0.75c-0.03539,0 -0.0702,-0.00245 -0.10429,-0.00719l-0.41758,0.37333c0,0 -0.1447,0.02412 -0.31677,-0.01298c-3.83256,2.11523 -9.96338,0.05165 -14.0002,0.85902c0,0 -0.45853,0.09171 -0.72388,-0.23176l-0.72761,0.41743c0,0 -0.75,0 -0.75,-0.75z" fill="#000000" fill-rule="nonzero" stroke="none" stroke-width="0.5" stroke-linecap="butt" stroke-linejoin="miter"/><path d="M229.73377,141.20084c2.04629,-1.12369 4.25199,-2.09059 6.96573,-2.80866c4.51122,-1.33374 9.31928,-1.18361 9.31928,-1.18361l8.8873,-11.39455c0.31361,-0.31882 0.88385,-0.19702 0.91886,0.2138l3.81348,17.61469c-0.82686,-0.56241 14.17571,8.67464 11.15275,21.7602c-3.02296,13.08556 -15.65569,22.80328 -34.64028,25.39471c-18.98459,2.59143 -26.64674,-6.20012 -27.35847,-11.98142c-0.71173,-5.7813 5.32473,-10.06862 5.32473,-10.06862c0,0 -1.36354,-4.28961 -0.11837,-10.52976c0.72818,-3.73762 5.25992,-10.25784 5.25992,-10.25784l-1.00743,-10.96518c-0.03501,-0.41082 0.40562,-0.66745 0.75424,-0.57545z" fill="#ffab19" fill-rule="evenodd" stroke="#001026" stroke-width="1.2" stroke-linecap="butt" stroke-linejoin="miter"/><path d="M231.7281,168.31767c8.1412,-2.15425 16.07204,-14.48963 25.87769,-6.53795c9.77325,7.85707 3.55979,25.2065 -20.95469,28.31785c-18.76297,2.62124 -26.64152,-5.56769 -27.35325,-11.34898c-0.71173,-5.7813 5.23273,-9.72 5.23273,-9.72c7.42573,-4.55176 10.22397,1.1491 17.19751,-0.71091z" fill="#ffffff" fill-rule="evenodd" stroke="none" stroke-width="1" stroke-linecap="butt" stroke-linejoin="miter"/><path d="M210.00144,175.86502c0,0 -6.84393,2.23843 -12.52167,0.16641" fill="none" fill-rule="evenodd" stroke="#001026" stroke-width="1.2" stroke-linecap="round" stroke-linejoin="round"/><path d="M211.53482,181.57631c0,0 -3.07392,3.06121 -9.19602,4.62959" fill="none" fill-rule="evenodd" stroke="#001026" stroke-width="1.2" stroke-linecap="round" stroke-linejoin="round"/><path d="M236.43709,168.46765c0.51845,1.51368 -2.64486,5.23973 -4.41255,5.63378c-1.54608,0.42385 -3.87244,-1.73904 -4.23148,-3.09591c-0.13222,-0.69464 1.88428,-1.59671 3.87097,-2.27718c1.89209,-0.64807 4.47882,-1.42835 4.77305,-0.26069z" fill="#001026" fill-rule="evenodd" stroke="#001026" stroke-width="1.2" stroke-linecap="round" stroke-linejoin="round"/><path d="M263.81469,159.23028c2.30666,-4.06686 9.53536,-9.50247 9.53536,-9.50247" fill="none" fill-rule="evenodd" stroke="#001026" stroke-width="1.2" stroke-linecap="round" stroke-linejoin="round"/><path d="M275.92814,159.4151c0,0 -6.6443,3.43849 -11.26316,3.22355" fill="none" fill-rule="evenodd" stroke="#001026" stroke-width="1.2" stroke-linecap="round" stroke-linejoin="round"/><path d="M224.59303,150.57223c3.23218,0.79559 4.79015,5.65283 3.50476,10.84973c-1.38,5.22931 -5.05134,8.70655 -8.28352,7.91096c-3.23218,-0.79559 -4.79015,-5.65283 -3.50476,-10.84973c1.28539,-5.1969 5.01893,-8.80115 8.28352,-7.91096z" fill="#ffffff" fill-rule="evenodd" stroke="#001026" stroke-width="1.2" stroke-linecap="round" stroke-linejoin="round"/><path d="M219.73491,166.54603c-0.35644,-1.04065 0.10878,-2.15132 1.05482,-2.47535c0.94604,-0.32403 1.99451,0.26818 2.35094,1.30883c0.35644,1.04065 -0.10877,2.15132 -1.05481,2.47535c-0.94604,0.32403 -1.99452,-0.26819 -2.35095,-1.30884" fill="#001026" fill-rule="evenodd" stroke="none" stroke-width="1" stroke-linecap="butt" stroke-linejoin="miter"/><path d="M249.43789,145.33936c3.64561,1.0768 5.30339,6.53406 3.79639,11.70117c-1.4124,5.1347 -5.12135,7.88491 -8.85897,7.15672c-3.16998,-0.9226 -5.10897,-5.96644 -3.69657,-11.10114c1.4124,-5.1347 5.08114,-8.92816 8.75915,-7.75675z" fill="#ffffff" fill-rule="evenodd" stroke="#001026" stroke-width="1.2" stroke-linecap="round" stroke-linejoin="round"/><path d="M243.72576,162.38876c-0.35644,-1.04065 0.14118,-2.05671 1.05482,-2.47535c0.94604,-0.32403 1.99451,0.26818 2.35094,1.30883c0.35644,1.04065 -0.10877,2.15132 -1.05481,2.47535c-0.94604,0.32403 -1.99452,-0.26818 -2.35095,-1.30883" fill="#001026" fill-rule="evenodd" stroke="none" stroke-width="1" stroke-linecap="butt" stroke-linejoin="miter"/><path d="M241.07083,180.86459c0.33541,0.67082 -0.33541,1.00623 -0.33541,1.00623l-0.45687,0.22554c-2.76249,1.105 -5.46674,2.33243 -8.37452,2.84639c-1.76553,0.31207 -4.4411,-0.71821 -5.85403,0.45725c0,0 -0.6,0.45 -1.05,-0.15c-0.45,-0.6 0.15,-1.05 0.15,-1.05c2.03452,-1.42925 4.25582,-0.31361 6.54597,-0.74275c2.78513,-0.52189 5.36767,-1.69048 8.02548,-2.75361l0.34313,-0.17446c0,0 0.67082,-0.33541 1.00623,0.33541z" fill="#001026" fill-rule="nonzero" stroke="none" stroke-width="0.5" stroke-linecap="butt" stroke-linejoin="miter"/></g></g></svg>