<svg version="1.1" xmlns="http://www.w3.org/2000/svg" xmlns:xlink="http://www.w3.org/1999/xlink" width="195.76346" height="183.08829" viewBox="0,0,195.76346,183.08829"><g transform="translate(-142.21654,-88.43269)"><g data-paper-data="{&quot;isPaintingLayer&quot;:true}" stroke="none" stroke-linecap="butt" stroke-linejoin="miter" stroke-miterlimit="10" stroke-dasharray="" stroke-dashoffset="0" style="mix-blend-mode: normal"><path d="M283.495,223.759c0,0 -6.87,40.826 -8.92,45.955c-1.52,0.135 -11.58,0.406 -13.08,-0.05c0.87,-9.14 5.595,-44.291 5.595,-44.291z" fill="#008264" fill-rule="evenodd" stroke-width="1"/><path d="M233.2,223.969c0,0 -3.685,40.606 -5.74,45.74c-1.52,0.135 -11.1,0.737 -12.6,0.286c0.865,-9.14 3.5,-44.622 3.5,-44.622z" fill="#008264" fill-rule="evenodd" stroke-width="1"/><path d="M144.61,177.062c5.705,-1.158 12.32,-0.922 15.82,4.472c3.43,5.28 3.215,13.361 2.93,19.378c-0.3,6.237 -0.91,12.358 -1.71,18.55c-0.31,2.382 -1.635,15.663 0,24.742c1.26,6.964 5.12,10.529 7.395,10.529c5.24,0 10.53,-3.038 12.19,-7.094c1.66,-4.056 2,-8.278 2.215,-12.579c0.2,-4.142 0.5,-8.243 0.665,-12.379c0.165,-4.136 1.475,-18.836 2.035,-22.952c0.125,3.975 9.475,15.542 15.41,20.24c-1.195,10.328 -1.39,42.56 -12.065,48.271c-8.855,4.738 -24.57,4.552 -32.315,-1.92c-7.915,-6.613 -9.325,-17.112 -8.77,-27.445c0.708,-12.329 2.14,-24.605 4.29,-36.765c0.8,-4.643 1.815,-11.416 -0.645,-15.688c-1.55,-2.692 -4,-3.735 -6.81,-4.437c-1.375,-0.341 -2.785,-0.351 -3,-1.86c-0.24,-1.378 1.08,-2.802 2.365,-3.063z" fill="#005a5a" fill-rule="evenodd" stroke-width="1"/><g fill-rule="evenodd" stroke-width="1"><path d="M328.26,205.82c0.105,0.256 0.615,2.652 0.665,2.778c-1.175,7.395 -9.55,6.908 -15.425,5.831c-7.465,-1.364 -11.93,-6.573 -14.825,-13.297z" fill="#00a08c"/><path d="M327.56,204.888c-0.09,0.616 1.17,3.69 -1.83,5.259c-2.695,1.413 -5.855,1.635 -8.72,0.612c-2.915,-1.063 -5.27,-3.831 -6.425,-6.804z" fill="#000000"/><path d="M322.515,206.196c0,0 -0.5,2.081 -1,2.698c-0.733,0.826 -1.969,0.964 -2.865,0.32c-1.29,-0.907 -1.085,-2.933 -1.085,-2.933z" fill="#ffffff"/></g><path d="M196.355,178.772c8.135,-8.338 18.58,-13.743 30.415,-13.798c2.85,0 5.715,0.597 8.535,0.968c3.78,0.501 7.635,0.571 11.44,0.852c6.8,0.501 11,-1.003 12.53,-8.087c1.145,-5.234 0.455,-11.361 -0.035,-16.67c-0.54,-5.926 -1.69,-10.789 -1.81,-16.746c-0.12,-5.956 -0.165,-11.842 1.5,-17.688c1.77,-6.257 6.77,-12.388 12.3,-15.557c10.605,-6.082 23.575,-4.151 33,3.284c9.11,7.154 14.795,19.458 16.345,30.774c0.859,6.244 1.221,12.548 1.08,18.851c-0.14,5.515 -1.77,11.18 -3,16.515c-1.5,6.472 -2.43,13.09 0.345,19.367c1.25,2.843 3.66,6.097 6.39,7.686c2.54,1.479 5.735,1.289 7.6,3.881c3.335,4.632 1.095,12.534 -4.17,14.614c-2.365,0.928 -5.37,1.139 -7.87,0.948c-1.75,-0.14 -7.88,-0.642 -13.41,-3.149c-3.875,-1.759 -5.61,-1.809 -8.865,-3.71c-3.885,-9.24 -3.31,-21.558 -1.96,-31.3c1.525,-10.98 3.14,-22.06 2.95,-33.18c-0.095,-5.475 -0.84,-11.767 -3.06,-16.826c-1.905,-4.341 -7.04,-8.809 -11.75,-5.444c-3.89,2.777 -5.625,8.588 -6.47,13.035c-1.185,6.207 -1.14,12.464 -0.455,18.726c1.475,13.477 7.23,60.103 7.3,63.909c0.155,7.891 -1.2,19.447 -6.045,24.982c-4.845,5.536 -10.235,5.736 -13.195,6.749c-3.47,1.188 -37.29,1.88 -43.22,1.183c-0.14,-0.12 -21.525,1.248 -29.065,-8.744c-7.54,-9.992 -8.56,-21.664 -8.555,-25.765c0.015,-10.944 3.425,-21.664 11.205,-29.66z" fill="#00a08c" fill-rule="evenodd" stroke-width="1"/><path d="M258.12,223.974c0,0 -3.685,40.606 -5.735,45.735c-1.52,0.135 -11.1,0.737 -12.6,0.286c0.865,-9.14 3.5,-44.622 3.5,-44.622z" fill="#00a08c" fill-rule="evenodd" stroke-width="1"/><path d="M210.51,223.974c0,0 -3.68,40.606 -5.735,45.735c-1.52,0.135 -11.1,0.737 -12.6,0.286c0.865,-9.14 3.5,-44.622 3.5,-44.622z" fill="#00a08c" fill-rule="evenodd" stroke-width="1"/><g fill-rule="evenodd" stroke-width="1"><path d="M318.51,201.539c0.7,-2.723 2.72,-1.434 2.45,0.541c-0.26,1.975 -3.185,2.336 -2.45,-0.541z" fill="#005a5a"/><path d="M328.79,201.268c0.7,-2.723 2.72,-1.434 2.45,0.541c-0.27,2.006 -3.185,2.352 -2.45,-0.541z" fill="#005a5a"/><path d="M336.86,193.712l0.57,-0.12c0.663,1.078 0.731,2.42 0.18,3.56l-0.785,0.175c-0.89,-0.852 -0.865,-2.863 0.035,-3.615z" fill="#000000"/><path d="M302.765,193.532l0.575,-0.121c0.661,1.079 0.727,2.422 0.175,3.56l-0.785,0.176c-0.89,-0.853 -0.86,-2.858 0.035,-3.615z" fill="#000000"/></g><path d="M255.75549,199.8715l-17.35182,12.96458l5.94477,0.03644l-26.7614,20.28309l14.89705,-17.26902l-4.90118,0.89028l13.54278,-14.76683l-6.71714,0.09361l12.1691,-11.26136l-5.56508,-0.31489l13.76128,-20.15813l9.70062,6.97494l-10.82356,10.56436l7.55542,1.21968l-12.84235,9.49212l7.39151,1.25113" fill="#faec00" fill-rule="nonzero" stroke-width="0.66342"/></g></g></svg>