<svg version="1.1" xmlns="http://www.w3.org/2000/svg" xmlns:xlink="http://www.w3.org/1999/xlink" width="226.94108" height="181.70519" viewBox="0,0,226.94108,181.70519"><g transform="translate(-142.16296,-88.95955)"><g data-paper-data="{&quot;isPaintingLayer&quot;:true}" stroke="none" stroke-width="1" stroke-linecap="butt" stroke-linejoin="miter" stroke-miterlimit="10" stroke-dasharray="" stroke-dashoffset="0" style="mix-blend-mode: normal"><path d="M298.222,244.41501c-2.646,-2.47 -7.694,-8.8 -7.694,-8.8c0,0 4.722,-3.305 4.511,-8.83c-1.228,-6.155 -14.632,-3.69 -23.154,-2.335l-0.411,-13.955c8.547,-2.38 24.317,-1.01 29.33,1.21c3.694,1.645 6.291,5.92 7.088,9.585c1.684,7.79 -3.539,18.525 -9.67,23.125z" fill="#008264" fill-rule="evenodd"/><path d="M233.433,224.60001c0,0 -3.695,40.495 -5.755,45.615c-1.524,0.135 -11.128,0.735 -12.632,0.285c0.867,-9.115 3.509,-44.5 3.509,-44.5z" fill="#008264" fill-rule="evenodd"/><path d="M175.716,156.33501c2.802,-0.165 2.507,9.055 0.757,19.315c-0.927,5.395 -2.852,13.5 -3.654,15.425c-2.416,5.745 -5.078,11.28 -7.95,16.81c-1.113,2.115 -6.893,14.115 -8.442,23.195c-1.188,6.955 1.239,11.6 3.379,12.375c4.937,1.79 10.376,2.42 13.324,-0.81c1.027,-1.125 5.228,-8.61 7.153,-14.94c3.559,-11.705 5.228,-25.24 6.251,-27.705c1.574,-3.83 11.604,9.885 15.589,16.305c-4.651,9.275 -8.296,37.38 -27.66,46.81c-9.023,4.405 -23.84,-0.215 -28.928,-8.93c-5.193,-8.905 -3.81,-23.135 0.245,-32.63c4.848,-11.345 10.677,-22.11 16.582,-33c9.329,-17.17 9.078,-31.97 13.354,-32.22z" fill="#005a5a" fill-rule="evenodd"/><path d="M196.494,179.40306c8.156,-8.315 18.627,-13.705 30.492,-13.76c2.858,0 5.73,0.595 8.557,0.965c3.79,0.5 7.655,0.57 11.469,0.85c6.818,0.5 11.028,-1 12.562,-8.065c1.148,-5.22 0.456,-11.33 -0.035,-16.625c-0.541,-5.91 -1.694,-10.76 -1.815,-16.7c-0.12,-5.94 -0.165,-11.81 1.504,-17.64c1.775,-6.24 6.788,-12.355 12.332,-15.515c6.67886,-3.80994 14.71513,-4.68405 21.70559,-3.39866c0.01256,2.6505 1.6217,7.96233 0.99712,10.46974c-0.74869,3.28952 2.40752,4.70304 1.58569,8.00134c-0.48951,1.96456 0.15868,2.62238 -0.30953,4.59249c-1.19747,-0.0277 -9.11714,1.73054 -10.31988,2.5851c-3.9,2.77 -5.639,8.565 -6.486,13c-1.188,6.19 -1.143,12.43 -0.456,18.675c1.478,13.44 7.248,59.94 7.318,63.735c0.156,7.87 -1.203,19.395 -6.06,24.915c-4.857,5.52 -10.261,5.72 -13.229,6.73c-3.479,1.185 -37.385,1.875 -43.33,1.18c-0.14,-0.12 -21.579,1.245 -29.139,-8.72c-7.559,-9.965 -8.581,-21.605 -8.576,-25.695c0.015,-10.915 3.433,-21.605 11.233,-29.58z" fill="#00a08c" fill-rule="nonzero"/><path d="M210.685,224.60501c0,0 -3.689,40.495 -5.75,45.61c-1.523,0.135 -11.128,0.735 -12.632,0.285c0.868,-9.115 3.509,-44.5 3.509,-44.5z" fill="#00a08c" fill-rule="evenodd"/><path d="M260.747,242.74001v-12.92c6.848,-0.285 13.685,-0.08 16.728,0.785c3.889,1.105 8.797,6.235 10.1,9.745c2.777,7.5 -1.343,19.23 -6.762,24.65l-11.324,-7.93c0,0 5.409,-5.28 4.417,-10.725c-1.078,-3.06 -6.773,-3.74 -13.159,-3.605z" fill="#00a08c" fill-rule="evenodd"/><path d="M366.46086,173.09023c0.18604,0.16477 1.55889,1.94922 1.64893,2.03074c2.07675,6.9042 -4.70218,10.74967 -9.75666,12.81906c-6.41996,2.63449 -12.04203,-0.72088 -17.04532,-4.98142z" fill="#00a08c" fill-rule="evenodd"/><path d="M365.53224,172.65118c0.17964,0.57156 2.41655,2.55163 0.69523,5.41618c-1.54413,2.57536 -3.93841,4.37233 -6.60471,4.95738c-2.72177,0.57622 -5.69533,-0.5859 -7.80926,-2.53374z" fill="#000000" fill-rule="evenodd"/><path d="M362.09815,176.33356c0,0 0.45139,2.02858 0.30883,2.80868c-0.24095,1.07756 -1.15607,1.82425 -2.12196,1.73142c-1.38175,-0.1178 -2.04278,-1.94915 -2.04278,-1.94915z" fill="#ffffff" fill-rule="evenodd"/><path d="M302.67229,90.25888c10.0619,1.46708 19.52083,9.06763 25.32979,17.92909c3.20929,4.88827 6.05064,10.08069 8.49687,15.52664c2.12768,4.77417 3.14444,10.43518 4.34209,15.61003c1.44693,6.28292 3.40125,12.39957 8.12865,16.34098c2.13551,1.78846 5.34949,3.33742 8.13981,3.304c2.59663,-0.03107 5.03017,-1.81878 7.54764,-0.55716c4.50002,2.25437 5.94576,10.1318 2.65168,14.58478c-1.48233,1.99404 -3.7588,3.70244 -5.80054,4.81154c-1.43192,0.77028 -6.45316,3.46125 -11.81612,4.13654c-3.75939,0.47055 -5.14294,1.31018 -8.47248,1.34592c-6.8012,-5.90403 -11.34726,-16.70139 -14.23874,-25.69536c-3.25592,-10.13933 -6.48197,-20.40986 -11.14236,-29.79668c-2.29562,-4.62072 -5.43388,-9.60754 -9.23117,-12.7921c-2.08138,-1.74592 -8.75557,-3.10908 -11.35993,-2.31809c-0.42175,-1.87144 -0.39337,-4.69957 -0.79539,-6.57787c-0.69488,-3.24657 -0.40738,-5.04614 -1.14126,-8.25025c-0.43287,-1.98802 0.00599,-4.84882 -0.39763,-7.05803c-0.09176,-0.50223 -0.18161,-0.9708 -0.38059,-1.38778c2.72803,0.39385 6.72883,0.33785 10.13966,0.84379z" fill="#00a08c" fill-rule="nonzero"/><path d="M357.06118,174.39881c-0.55417,-2.67784 1.55597,-2.60652 2.14494,-0.78443c0.59681,1.81701 -1.55514,3.61257 -2.14494,0.78443z" fill="#005a5a" fill-rule="evenodd"/><path d="M365.03022,168.93857c-0.55417,-2.67784 1.55597,-2.60652 2.14493,-0.78442c0.60196,1.84724 -1.54904,3.62541 -2.14493,0.78442z" fill="#005a5a" fill-rule="evenodd"/><path d="M366.064,155.31787l0.39878,-0.39234c0.5267,0.32022 0.94461,0.80015 1.21899,1.37541c0.2246,0.47087 0.35303,1.00561 0.36626,1.56892l-0.54496,0.54847c-1.0458,-0.27373 -1.84185,-2.00092 -1.4391,-3.10045z" fill="#000000" fill-rule="evenodd"/><path d="M341.43899,175.58016l0.40272,-0.39489c0.95745,0.5837 1.55349,1.69435 1.58213,2.94636l-0.54575,0.54898c-1.0458,-0.27373 -1.8351,-1.99969 -1.4391,-3.10045z" fill="#000000" fill-rule="evenodd"/></g></g></svg>