<svg version="1.1" xmlns="http://www.w3.org/2000/svg" xmlns:xlink="http://www.w3.org/1999/xlink" width="186.86777" height="191.70821" viewBox="0,0,186.86777,191.70821"><g transform="translate(-142.16296,-78.95654)"><g data-paper-data="{&quot;isPaintingLayer&quot;:true}" stroke="none" stroke-linecap="butt" stroke-linejoin="miter" stroke-miterlimit="10" stroke-dasharray="" stroke-dashoffset="0" style="mix-blend-mode: normal"><path d="M298.222,244.41501c-2.646,-2.47 -7.694,-8.8 -7.694,-8.8c0,0 4.722,-3.305 4.511,-8.83c-1.228,-6.155 -14.632,-3.69 -23.154,-2.335l-0.411,-13.955c8.547,-2.38 24.317,-1.01 29.33,1.21c3.694,1.645 6.291,5.92 7.088,9.585c1.684,7.79 -3.539,18.525 -9.67,23.125z" fill="#008264" fill-rule="evenodd" stroke-width="1"/><path d="M233.433,224.60001c0,0 -3.695,40.495 -5.755,45.615c-1.524,0.135 -11.128,0.735 -12.632,0.285c0.867,-9.115 3.509,-44.5 3.509,-44.5z" fill="#008264" fill-rule="evenodd" stroke-width="1"/><path d="M175.716,156.33501c2.802,-0.165 2.507,9.055 0.757,19.315c-0.927,5.395 -2.852,13.5 -3.654,15.425c-2.416,5.745 -5.078,11.28 -7.95,16.81c-1.113,2.115 -6.893,14.115 -8.442,23.195c-1.188,6.955 1.239,11.6 3.379,12.375c4.937,1.79 10.376,2.42 13.324,-0.81c1.027,-1.125 5.228,-8.61 7.153,-14.94c3.559,-11.705 5.228,-25.24 6.251,-27.705c1.574,-3.83 11.604,9.885 15.589,16.305c-4.651,9.275 -8.296,37.38 -27.66,46.81c-9.023,4.405 -23.84,-0.215 -28.928,-8.93c-5.193,-8.905 -3.81,-23.135 0.245,-32.63c4.848,-11.345 10.677,-22.11 16.582,-33c9.329,-17.17 9.078,-31.97 13.354,-32.22z" fill="#005a5a" fill-rule="evenodd" stroke-width="1"/><path d="M210.685,224.60501c0,0 -3.689,40.495 -5.75,45.61c-1.523,0.135 -11.128,0.735 -12.632,0.285c0.868,-9.115 3.509,-44.5 3.509,-44.5z" fill="#00a08c" fill-rule="evenodd" stroke-width="1"/><path d="M260.747,242.74001v-12.92c6.848,-0.285 13.685,-0.08 16.728,0.785c3.889,1.105 8.797,6.235 10.1,9.745c2.777,7.5 -1.343,19.23 -6.762,24.65l-11.324,-7.93c0,0 5.409,-5.28 4.417,-10.725c-1.078,-3.06 -6.773,-3.74 -13.159,-3.605z" fill="#00a08c" fill-rule="evenodd" stroke-width="1"/><path d="M322.02819,180.35645c0.11706,0.21922 0.783,2.36991 0.83904,2.47768c-0.45609,7.19534 -8.14959,8.44098 -13.60829,8.62178c-6.93549,0.23532 -11.03822,-4.86702 -14.24581,-10.60255z" fill="#00a08c" fill-rule="evenodd" stroke-width="1"/><path d="M316.80941,181.87856c0,0 -0.28287,2.05885 -0.68804,2.74056c-0.60093,0.92632 -1.71871,1.30783 -2.5919,0.88462c-1.25436,-0.59135 -1.23666,-2.53827 -1.23666,-2.53827z" fill="#ffffff" fill-rule="evenodd" stroke-width="1"/><path d="M289.92082,84.36614c8.92218,4.87738 16.28071,11.43124 18.64226,21.76045c1.30728,5.69962 2.16377,11.55633 2.5616,17.51318c0.33301,5.21621 -0.6841,10.87716 -1.36244,16.1453c-0.83029,6.39369 -1.12705,12.8081 1.93297,18.14845c1.37952,2.4199 3.85344,4.99063 6.48093,5.93046c2.44509,0.87463 5.34869,0.04568 7.26966,2.10462c3.43403,3.67964 2.04765,11.56774 -2.59032,14.5958c-2.08367,1.35344 -4.81241,2.16271 -7.11251,2.49184c-1.61048,0.22374 -7.25437,0.99883 -12.51706,-0.23467c-3.68811,-0.86732 -5.27739,-0.56173 -8.41119,-1.68706c-4.32108,-7.90204 -4.82491,-19.60656 -4.40526,-29.04457c0.47663,-10.6386 1.02691,-21.3898 -0.07503,-31.81177c-0.54386,-5.1308 -1.75025,-10.89809 -4.20174,-15.20518c-1.34358,-2.36118 -7.12604,-5.96205 -9.84287,-6.12696c0.25597,-1.90122 1.26691,-4.54265 1.54376,-6.44343c0.47853,-3.28544 0.23802,-1.00879 0.66521,-4.26799c0.28612,-2.01438 1.69324,-4.54357 2.08377,-6.75513c0.08877,-0.50276 0.16763,-0.97331 0.12622,-1.43348c2.21646,1.20761 -0.41404,-0.35244 2.61534,0.57541c0.27871,0.08537 1.11484,-0.03163 1.36941,0.10835c0.25457,0.13998 5.22729,3.63638 5.22729,3.63638z" fill="#00a08c" fill-rule="nonzero" stroke-width="1"/><path d="M312.76076,178.31167c0.41249,-2.70329 2.36588,-1.90199 2.28385,0.01116c-0.07291,1.91112 -2.71525,2.84543 -2.28385,-0.01116z" fill="#005a5a" fill-rule="evenodd" stroke-width="1"/><path d="M322.13197,175.96643c0.41249,-2.70329 2.36588,-1.902 2.28384,0.01117c-0.0786,1.94126 -2.71401,2.85959 -2.28384,-0.01117z" fill="#005a5a" fill-rule="evenodd" stroke-width="1"/><path d="M327.84178,163.55715l0.5104,-0.22902c0.38232,0.48352 0.60706,1.07889 0.66406,1.71368c0.04667,0.5196 -0.01905,1.06561 -0.2027,1.5983l-0.70178,0.32451c-0.88514,-0.62061 -1.03028,-2.51687 -0.27002,-3.40748z" fill="#000000" fill-rule="evenodd" stroke-width="1"/><path d="M297.70415,173.98189l0.51498,-0.23004c0.69443,0.88045 0.86665,2.1291 0.45774,3.3128l-0.7027,0.32471c-0.88514,-0.62061 -1.02438,-2.51336 -0.27002,-3.40748z" fill="#000000" fill-rule="evenodd" stroke-width="1"/><path d="M196.494,179.40306c8.156,-8.315 18.627,-13.705 30.492,-13.76c2.858,0 5.73,0.595 8.557,0.965c3.79,0.5 7.655,0.57 11.469,0.85c6.818,0.5 11.028,-1 12.562,-8.065c1.148,-5.22 0.456,-11.33 -0.035,-16.625c-0.541,-5.91 -1.694,-10.76 -1.815,-16.7c-0.12,-5.94 -3.165,-18.81 -1.496,-24.64c1.775,-6.24 1.288,-14.355 6.832,-17.515c6.67886,-3.80994 15.66866,-6.96087 21.81923,-3.39866c6.53591,3.78539 13.66715,8.41688 13.04257,10.92429c-0.74869,3.28952 -9.75157,4.24849 -10.5734,7.54679c-0.48951,1.96456 0.15868,2.62238 -0.30953,4.59249c-1.19747,-0.0277 -9.11714,1.73054 -10.31988,2.5851c-3.9,2.77 -1.50264,14.88318 -0.986,20c-0.32418,1.6891 0.34866,3.53086 0.52095,5.44306c0.4591,5.09539 1.52351,10.69105 2.02305,15.23194c1.478,13.44 7.248,59.94 7.318,63.735c0.156,7.87 -1.203,19.395 -6.06,24.915c-4.857,5.52 -10.261,5.72 -13.229,6.73c-3.479,1.185 -37.385,1.875 -43.33,1.18c-0.14,-0.12 -21.579,1.245 -29.139,-8.72c-7.559,-9.965 -8.581,-21.605 -8.576,-25.695c0.015,-10.915 3.433,-21.605 11.233,-29.58z" fill="#00a08c" fill-rule="nonzero" stroke-width="1"/><path d="M256.09853,201.28316l-17.35182,12.96458l5.94477,0.03644l-26.7614,20.28309l14.89705,-17.26902l-4.90118,0.89028l13.54278,-14.76683l-6.71714,0.09361l12.1691,-11.26136l-5.56508,-0.31489l13.76128,-20.15813l9.70062,6.97494l-10.82356,10.56436l7.55542,1.21968l-12.84235,9.49212l7.39151,1.25113" fill="#faec00" fill-rule="nonzero" stroke-width="0.66342"/></g></g></svg>