<svg version="1.1" xmlns="http://www.w3.org/2000/svg" xmlns:xlink="http://www.w3.org/1999/xlink" width="161.29645" height="181.23311" viewBox="0,0,161.29645,181.23311"><g transform="translate(-159.345,-89.43162)"><g data-paper-data="{&quot;isPaintingLayer&quot;:true}" stroke="none" stroke-linecap="butt" stroke-linejoin="miter" stroke-miterlimit="10" stroke-dasharray="" stroke-dashoffset="0" style="mix-blend-mode: normal"><g fill-rule="evenodd" stroke-width="1"><path d="M198.675,162.27c-2.895,6.705 -7.36,11.895 -14.825,13.26c-5.875,1.075 -14.25,1.56 -15.425,-5.815c0.05,-0.125 0.56,-2.515 0.665,-2.775z" fill="#00a08c"/><path d="M182.675,159.345l8.725,6.045c-1.155,2.96 -6.175,5.835 -9.09,6.895c-2.47,0.92 -7.69,0.565 -10.69,-1c-3,-1.565 -1.74,-4.63 -1.83,-5.245z" fill="#000000"/><path d="M174.45,166.695c0,0 0.205,2.015 -1.085,2.925c-0.898,0.641 -2.134,0.5 -2.865,-0.325c-0.525,-0.61 -1.025,-2.69 -1.025,-2.69z" fill="#ffffff"/></g><path d="M164.385,153.6c1.865,-2.585 5.05,-2.405 7.6,-3.865c7,-4 11.225,-22.33 29.955,-21.03c6.065,0.42 19.65,3.615 40.535,6.66c21.85,3.19 41.445,4.65 41.445,4.65c0,0 9.85,2.325 10.805,10.805c0.955,8.48 -9.725,10.63 -9.725,10.63l-2.565,-0.125l-3.88,-2.135c-5.142,0.615 -10.329,0.782 -15.5,0.5c-13.545,-0.75 -49.385,-7.275 -52.895,-6.925c-9.465,0.94 -10.705,7.66 -11.5,9.5c-3.255,1.89 -7.33,6.5 -7.33,6.5c-2.878,-2.765 -6.893,-4.009 -10.83,-3.355c-6.57,1.155 -9.6,3.695 -11.965,2.765c-5.245,-2.07 -7.485,-9.955 -4.15,-14.575z" fill="#00a08c" fill-rule="evenodd" stroke-width="1"/><g fill-rule="evenodd" stroke-width="1"><path d="M176.39,163.24c-0.27,-1.975 1.75,-3.255 2.45,-0.54c0.735,2.865 -2.185,2.51 -2.45,0.54z" fill="#005a5a"/><path d="M166.11,163c-0.27,-1.975 1.75,-3.255 2.45,-0.54c0.735,2.85 -2.18,2.495 -2.45,0.54z" fill="#005a5a"/><path d="M160.5,157.715l-0.785,-0.175c-0.551,-1.136 -0.483,-2.475 0.18,-3.55l0.57,0.12c0.88,0.75 0.905,2.755 0.035,3.605z" fill="#000000"/><path d="M189.64,156.755l-0.785,-0.18c-0.551,-1.135 -0.483,-2.472 0.18,-3.545l0.575,0.115c0.89,0.75 0.92,2.755 0.03,3.61z" fill="#000000"/></g><path d="M183.925,223.3c0.17,-4.135 1.475,-18.785 2.035,-22.89c0.1,3.23 6.325,11.5 11.835,16.965c11.24,4.69 38.325,22.78 75.365,31.5c4.575,1.075 11.31,2.265 15.66,0c2.745,-1.445 3.88,-3.835 4.69,-6.63c0.395,-1.365 0.465,-2.765 1.975,-2.945c1.41,-0.165 2.75,1.21 2.96,2.5c0.925,5.745 0.425,12.345 -5.09,15.635c-5.395,3.215 -13.44,2.68 -19.42,2.155c-6.205,-0.55 -12.285,-1.395 -18.425,-2.445c-2.36,-0.4 -25.42,-4.66 -34.61,-5.165c-15.62,-0.865 -22.295,0.47 -29.91,-6.065c-7.615,-6.535 -7.235,-18.49 -7.065,-22.615z" fill="#005a5a" fill-rule="evenodd" stroke-width="1"/><path d="M283.295,224.39c0,0 -6.87,40.715 -8.92,45.83c-1.52,0.135 -11.58,0.405 -13.08,-0.05c0.87,-9.115 5.595,-44.17 5.595,-44.17z" fill="#008264" fill-rule="evenodd" stroke-width="1"/><path d="M233,224.6c0,0 -3.685,40.495 -5.74,45.615c-1.52,0.135 -11.1,0.735 -12.6,0.285c0.865,-9.115 3.5,-44.5 3.5,-44.5z" fill="#008264" fill-rule="evenodd" stroke-width="1"/><g fill-rule="evenodd" stroke-width="1"><path d="M282.44,161.325l-4.645,-0.28c0,0 -1.305,-16.7 -1.305,-17.235c0,-0.535 5.95,17.515 5.95,17.515z" fill="#005a5a"/><path d="M196.155,179.525c8.135,-8.315 18.58,-13.705 30.415,-13.76c2.85,0 5.715,0.595 8.535,0.965c3.78,0.5 7.635,0.57 11.44,0.85c6.8,0.5 11,-1 12.53,-8.065c0,0 0,-0.03 0,-0.045c-0.865,-13.17 -2.405,-25.545 -2.38,-34.225c0.03,-10.16 1.725,-15.61 2.035,-16.695c1.77,-6.24 6.77,-12.355 12.3,-15.515c10.605,-6.065 23.575,-4.14 33,3.275c9.11,7.135 14.795,19.405 16.345,30.69c0.415,3.045 1.33,18.2 -6.36,26c-7.865,7.97 -24.39,8.555 -29,8.44c-0.33,-3.66 -0.365,-7.375 -0.765,-11c-0.4,-3.625 0.455,-6.81 -0.32,-10.435c21,2.84 14.705,-14.255 12.5,-19.3c-1.905,-4.33 -7.04,-8.785 -11.75,-5.43c-3.89,2.77 -5.625,8.565 -6.47,13c-0.67,3.5 0.405,30.08 1.405,34.68c2.24,18.865 5.385,44.93 5.44,47.73c0.155,7.87 -1.2,19.395 -6.045,24.915c-4.845,5.52 -10.235,5.72 -13.195,6.73c-3.47,1.185 -37.29,1.875 -43.22,1.18c-0.14,-0.12 -21.525,1.245 -29.065,-8.72c-7.54,-9.965 -8.56,-21.605 -8.555,-25.695c-0.01,-10.905 3.4,-21.595 11.18,-29.57z" fill="#00a08c"/></g><path d="M257.92,224.605c0,0 -3.685,40.495 -5.735,45.61c-1.52,0.135 -11.1,0.735 -12.6,0.285c0.865,-9.115 3.5,-44.5 3.5,-44.5z" fill="#00a08c" fill-rule="evenodd" stroke-width="1"/><path d="M210.31,224.605c0,0 -3.68,40.495 -5.735,45.61c-1.52,0.135 -11.1,0.735 -12.6,0.285c0.865,-9.115 3.5,-44.5 3.5,-44.5z" fill="#00a08c" fill-rule="evenodd" stroke-width="1"/><path d="M221.22514,203.90104l8.53242,-2.00183l-15.68013,-10.13332l8.72598,-1.97715l-13.4033,-11.53242l10.80687,-8.84951l17.53448,22.51068l-6.47007,0.77552l15.02435,12.24697l-7.84421,0.38338l16.88419,16.23631l-5.78383,-0.67933l18.6478,19.05646l-32.71176,-21.70313l6.93349,-0.47847l-21.19628,-13.85417" data-paper-data="{&quot;index&quot;:null}" fill="#faec00" fill-rule="nonzero" stroke-width="0.66342"/></g></g></svg>