<svg version="1.1" xmlns="http://www.w3.org/2000/svg" xmlns:xlink="http://www.w3.org/1999/xlink" width="88.6578" height="105.86802" viewBox="0,0,88.6578,105.86802"><g transform="translate(-197.84221,-127.50077)"><g data-paper-data="{&quot;isPaintingLayer&quot;:true}" stroke-miterlimit="10" stroke-dasharray="" stroke-dashoffset="0" style="mix-blend-mode: normal"><g data-paper-data="{&quot;index&quot;:null}" fill-rule="evenodd"><path d="M274.8422,194.3c3.1,-7.8 1.4,-14.8 5.7,-14.4c4.4,0.4 9.5,12.1 -0.1,20.7c-8.9,7.9 -18,5 -21.6,2.9c-3.5,-2.2 -0.8,-3.4 -0.2,-4.2c0.6,-0.8 11.8,6.3 16.2,-5z" fill="#ffab19" stroke="#001026" stroke-width="1.2" stroke-linecap="round" stroke-linejoin="round"/><path d="M280.04222,180.4c2.5,-0.4 4.7,3.2 5.2,6.7c0.2,3.6 -0.4,5.7 -1.1,7.4c-0.1,-0.7 -1,-3.1 -3.9,-3.6c-2.4,-0.4 -4,1.6 -4,1.6c0,0 1,-3 1.5,-7.4c0.4,-2.7 0.3,-4.3 2.3,-4.7z" fill="#ffffff" stroke="none" stroke-width="1" stroke-linecap="butt" stroke-linejoin="miter"/></g><path d="M262.80969,200.32416c3.48787,3.49782 0.47692,6.87187 -1.01526,9.27466c-2.08905,3.36391 -4.32483,5.22167 -4.05165,6.39016c0.93337,3.99234 3.92806,8.01625 3.53359,11.60016c-0.27816,2.32436 -10.26218,4.86392 -12.84958,4.33917c-3.23994,-0.68028 -5.14208,-7.93782 4.02124,-9.15585c0,0 -5.34314,-7.48003 -4.04954,-11.17145c1.8285,-5.35692 4.78129,-8.10119 5.4983,-8.9877c2.19657,-2.46477 5.85374,-5.27102 8.9129,-2.28915z" data-paper-data="{&quot;index&quot;:null}" fill="#ffab19" fill-rule="evenodd" stroke="#001026" stroke-width="1.2" stroke-linecap="round" stroke-linejoin="round"/><path d="M241.84222,188.7c4,6.6 0.8,17.3 -6.2,19.2c-5.4,1.5 -11.9,1.4 -11.5,-3.4c0.4,-4.9 7.4,-2.9 9.7,-4.1c2.4,-1.3 2.6,-9.7 2.9,-11.9c0.3,-2.3 3.6,-2.1 5.1,0.2z" data-paper-data="{&quot;index&quot;:null}" fill="#ffab19" fill-rule="evenodd" stroke="#001026" stroke-width="1.2" stroke-linecap="round" stroke-linejoin="round"/><g data-paper-data="{&quot;index&quot;:null}" fill-rule="evenodd"><path d="M245.55723,205.64068c-1.22445,-0.86643 -3.0902,-3.21569 -4.75604,-5.57047c-1.3521,-1.86328 -2.854,-5.52311 -2.854,-5.52311c-0.96886,-2.47412 -1.70151,-7.25568 1.59999,-7.24707c2.20193,0.03906 4.19286,-0.3162 7.57771,-0.91013c5.96448,-1.36565 7.1308,-2.59841 9.65446,1.83343c4.72805,8.17225 10.88908,13.90388 2.82511,18.92905c-1.96602,1.25491 -5.10942,3.34273 -7.85298,5.41948c-1.94663,1.95464 1.16572,5.97002 3.33135,8.31097c0.9301,1.07466 0.9744,2.67405 -0.09472,3.80407c-7.10064,7.29937 -9.23059,9.85932 -12.11533,6.83802c-3.91482,-4.09319 1.96938,-8.35772 1.96938,-8.35772c0,0 -5.00579,-7.36424 -4.49737,-10.67959c0.61114,-3.21815 5.21245,-6.84692 5.21245,-6.84692z" fill="#ffab19" stroke="#001026" stroke-width="1.2" stroke-linecap="round" stroke-linejoin="round"/><path d="M240.84517,199.07151c0,0 -1.96848,-2.44645 2.25512,-5.26444c4.41799,-3.02346 6.20593,0.12824 8.07168,2.4775c2.08505,3.04344 0.12734,4.59824 -1.82206,6.45292c-1.55785,1.54372 -3.02406,2.78478 -3.02406,2.78478c0,0 -3.15695,-2.01337 -5.48069,-6.45075z" fill="#ffffff" stroke="none" stroke-width="1" stroke-linecap="butt" stroke-linejoin="miter"/></g><path d="M248.50416,184.04126c6.79083,0.57516 17.01958,1.25557 18.56966,5.52842c0.71812,1.85049 1.5912,10.97944 -0.14108,14.92649c-1.92757,4.19576 -8.76771,3.12686 -8.69631,-1.52124c0.00965,-3.28937 0.06836,-8.79178 -0.18035,-8.98707c-0.96815,-0.55918 -5.43498,-0.24699 -7.16898,-1.93022" data-paper-data="{&quot;index&quot;:null}" fill="#ffab19" fill-rule="evenodd" stroke="#001026" stroke-width="1.2" stroke-linecap="round" stroke-linejoin="round"/><path d="M240.24222,136c2.3,-0.4 4.7,-0.6 7.5,-0.4c4.7,0.2 9.2,1.9 9.2,1.9l12.1,-7.9c0.4,-0.2 0.9,0.1 0.8,0.5l-2.1,17.9c-0.6,-0.8 10.6,12.8 3.5,24.2c-7.1,11.4 -22.2,16.5 -41,12.8c-18.8,-3.7 -23.2,-14.5 -22,-20.2c1.2,-5.7 8.3,-7.8 8.3,-7.8c0,0 0.1,-4.5 3.3,-10c1.9,-3.3 8.3,-8 8.3,-8l2.6,-10.7c0.1,-0.4 0.6,-0.5 0.9,-0.3z" fill="#ffab19" fill-rule="evenodd" stroke="#001026" stroke-width="1.2" stroke-linecap="butt" stroke-linejoin="miter"/><path d="M233.34222,162.3c8.4,0.6 19.9,-8.5 26.6,2.2c6.7,10.6 -4.8,25 -29,20c-18.6,-3.6 -23.4,-13.9 -22.2,-19.6c1.2,-5.7 8.1,-7.5 8.1,-7.5c8.5,-1.9 9.3,4.4 16.5,4.9z" fill="#ffffff" fill-rule="evenodd" stroke="none" stroke-width="1" stroke-linecap="butt" stroke-linejoin="miter"/><path d="M210.34222,162.4c0,0 -7.2,-0.1 -11.9,-3.9" fill="none" fill-rule="evenodd" stroke="#001026" stroke-width="1.2" stroke-linecap="round" stroke-linejoin="round"/><path d="M209.94222,168.3c0,0 -3.9,1.9 -10.2,1.4" fill="none" fill-rule="evenodd" stroke="#001026" stroke-width="1.2" stroke-linecap="round" stroke-linejoin="round"/><path d="M238.34222,161c0,1.6 -4.2,4.1 -6,3.9c-1.6,-0.1 -3.1,-2.9 -3,-4.3c0.1,-0.7 2.3,-0.9 4.4,-0.9c2,0 4.7,0.1 4.6,1.3z" fill="#001026" fill-rule="evenodd" stroke="#001026" stroke-width="1.2" stroke-linecap="round" stroke-linejoin="round"/><path d="M266.64222,164.1c3.5,-3.1 12.1,-5.9 12.1,-5.9" fill="none" fill-rule="evenodd" stroke="#001026" stroke-width="1.2" stroke-linecap="round" stroke-linejoin="round"/><path d="M278.04222,168.2c0,0 -7.4,1.1 -11.7,-0.6" fill="none" fill-rule="evenodd" stroke="#001026" stroke-width="1.2" stroke-linecap="round" stroke-linejoin="round"/><g fill-rule="evenodd"><path d="M232.34222,143.2c2.8,1.8 2.7,6.9 -0.2,11.4c-3,4.5 -7.6,6.6 -10.4,4.8c-2.8,-1.8 -2.7,-6.9 0.2,-11.4c2.9,-4.5 7.6,-6.7 10.4,-4.8z" fill="#ffffff" stroke="#001026" stroke-width="1.2" stroke-linecap="round" stroke-linejoin="round"/><path d="M222.34222,153.7c0,-1.1 0.8,-2 1.8,-2c1,0 1.8,0.9 1.8,2c0,1.1 -0.8,2 -1.8,2c-1,0 -1.8,-0.9 -1.8,-2" fill="#001026" stroke="none" stroke-width="1" stroke-linecap="butt" stroke-linejoin="miter"/></g><g fill-rule="evenodd"><path d="M257.54222,146.3c3.1,2.2 2.9,7.9 -0.2,12.3c-3,4.4 -7.4,5.8 -10.7,3.9c-2.7,-1.9 -2.9,-7.3 0.1,-11.7c3,-4.4 7.7,-6.8 10.8,-4.5z" fill="#ffffff" stroke="#001026" stroke-width="1.2" stroke-linecap="round" stroke-linejoin="round"/><path d="M247.34222,156.6c0,-1.1 0.8,-1.9 1.8,-2c1,0 1.8,0.9 1.8,2c0,1.1 -0.8,2 -1.8,2c-1,0 -1.8,-0.9 -1.8,-2" fill="#001026" stroke="none" stroke-width="1" stroke-linecap="butt" stroke-linejoin="miter"/></g><path d="M256.06182,201.08374c3.48787,3.49782 0.47692,6.87186 -1.01526,9.27465c-2.08905,3.3639 -4.32484,5.22167 -4.05165,6.39016c0.93337,3.99235 3.92806,8.01626 3.53359,11.60016c-0.27816,2.32435 -10.26218,4.86393 -12.84958,4.33918c-3.23994,-0.68028 -5.14209,-7.93782 4.02123,-9.15586c0,0 -5.34315,-7.48003 -4.04954,-11.17145c1.8285,-5.35692 4.7813,-8.10119 5.49831,-8.9877c2.19656,-2.46477 5.85374,-5.27102 8.9129,-2.28915z" data-paper-data="{&quot;index&quot;:null}" fill="#ffab19" fill-rule="evenodd" stroke="#001026" stroke-width="1.2" stroke-linecap="round" stroke-linejoin="round"/><path d="M256.97478,226.76084c-0.63278,0.18281 -1.37016,0.13332 -1.69979,-0.32149c-0.21261,-0.29335 -0.39187,-0.66707 -0.39594,-1.11373l-0.32194,-0.73717l0.05732,-0.03343c-0.05654,-0.06661 -0.10973,-0.13622 -0.15888,-0.20945c-0.62422,-0.92998 -0.15091,-2.06501 0.10034,-3.0183c-0.0899,-0.26975 -0.49624,-0.22635 -0.61069,-0.52273l-0.34065,-0.17783c-0.01957,-0.01425 -0.00447,-0.21691 -0.02292,-0.23251l-0.322,-0.29109c-0.01586,-0.0013 0.07067,0.09979 0.05481,0.09849l-0.074,-0.07466l-0.04823,-0.04872c-0.28232,-0.06224 0.04328,-0.26085 -0.09392,-0.50613l-0.55733,-0.68483c-0.09191,-0.15122 -0.36668,-0.29462 -0.36668,-0.48451c0,-0.02022 -0.01647,-0.21094 -0.01528,-0.23086c-0.06149,-0.08421 -0.01138,-0.02113 -0.05532,-0.11457c-0.00107,-0.0018 -0.12103,-0.19017 -0.1221,-0.19197l-0.13579,-0.43842l-0.10614,-0.35992c-0.09191,-0.15122 -0.14484,-0.32875 -0.14484,-0.51864c0,-0.19272 0.05452,-0.37272 0.14898,-0.52539c0.04579,-0.50983 0.47421,-0.90939 0.99595,-0.90939c0.24289,0 0.46556,0.0866 0.63881,0.2306l0.79153,0.64762l-0.128,0.15645c0.03217,0.01978 0.06401,0.03967 0.09553,0.0597l0.59472,0.16992c0.10989,0.02871 0.21243,0.07565 0.30417,0.13739c0.40342,0.04068 0.79866,0.19867 1.09928,0.49864c0.5105,0.5094 0.52521,1.34345 0.80127,2.00971c0.44058,1.06333 2.84177,5.6387 2.35438,6.74537c-0.93773,2.12923 -1.60082,1.82866 -2.31664,0.99189z" fill="#ffab19" fill-rule="nonzero" stroke="none" stroke-width="0.5" stroke-linecap="butt" stroke-linejoin="miter"/><path d="M228.97364,175.56954c0,1.75 -1.75,1.75 -1.75,1.75l-0.86026,-0.0898c-1.29117,-0.43743 -2.54981,-0.99869 -3.72247,-1.6939c0,0 -1.50061,-0.90037 -0.60025,-2.40098c0.90037,-1.50061 2.40098,-0.60025 2.40098,-0.60025c0.94691,0.5766 1.9747,1.03044 3.02853,1.37474l-0.24653,-0.0898c0,0 1.75,0 1.75,1.75z" fill="#000000" fill-rule="nonzero" stroke="none" stroke-width="0.5" stroke-linecap="butt" stroke-linejoin="miter"/></g></g></svg>