<svg version="1.1" xmlns="http://www.w3.org/2000/svg" xmlns:xlink="http://www.w3.org/1999/xlink" width="116.42975" height="48.2393" viewBox="0,0,116.42975,48.2393"><g transform="translate(-159.87559,-192.26609)"><g data-paper-data="{&quot;isPaintingLayer&quot;:true}" fill-rule="nonzero" stroke="none" stroke-width="0.5" stroke-linecap="butt" stroke-linejoin="miter" stroke-miterlimit="10" stroke-dasharray="" stroke-dashoffset="0" style="mix-blend-mode: normal"><path d="M160.28206,237.35654c-0.49988,0.01109 -0.39791,-1.03784 -0.39791,-1.03784l0.31862,-0.76381c-0.03233,-1.45687 2.81538,-1.76697 3.81668,-2.99579c1.51676,-1.86141 4.60163,-3.2719 6.5454,-4.71131c3.67558,-2.71548 7.92269,-4.89231 11.96819,-7.18719c1.87547,-1.0639 4.32713,-1.9944 5.76845,-3.60144c4.82823,-5.31025 7.71846,-11.56088 11.8432,-17.323c1.56393,-0.88833 2.50685,-2.10024 3.9452,-3.10221c0.9836,-0.68519 1.862,-0.74956 2.93084,-1.04439c2.18404,-0.60244 4.041,-2.46129 6.22546,-3.16016c0.51761,-0.16559 1.12936,-0.1968 1.67304,-0.13154c1.43223,0.17191 2.82247,1.01322 3.99939,1.8306c2.37397,1.64874 8.85764,8.76286 14.53918,13.54881c5.89757,6.12644 18.79049,17.24788 24.62243,20.56097c6.29996,3.57897 7.31566,4.42442 15.43929,8.05218c8.12363,3.62776 -4.14078,-0.82493 -3.77895,-0.47985c0.23959,0.2285 -1.24012,-0.42649 -2.08863,-0.88583c-0.43293,-0.23436 -1.0236,-0.84414 -2.21191,-1.2742c-5.74946,-2.08082 -1.62463,-0.98535 -6.10679,-3.26448c-5.34169,-2.71619 -20.7143,-17.36937 -26.14381,-21.04041c-5.56512,-3.76274 -9.04056,-9.85181 -14.16909,-13.69723c-2.55612,-1.9166 -3.45083,-2.13795 -3.8739,-2.21397c-0.24272,-0.04361 -0.33019,-0.28244 -0.4871,-0.14771c-0.16775,0.14405 -0.59923,-0.06778 -1.10845,0.09514c-1.81573,0.58091 -4.05157,2.53547 -6.25875,3.17019c-0.98248,0.28255 -1.72151,0.27127 -2.63127,0.90289c-1.40245,0.97368 -2.28977,2.19309 -3.84706,3.02439c-3.95365,5.84103 -6.97327,11.97431 -11.77246,17.2526c-1.55434,1.6897 -4.02132,2.66795 -6.01498,3.79854c-4.01487,2.27681 -8.22339,4.42956 -11.86734,7.12166c-1.92598,1.41976 -4.82678,2.76719 -6.3721,4.54804c-0.78004,0.89892 -3.9716,1.88777 -3.94753,2.9716l-0.19161,0.80283c0,0 0.13412,0.37087 -0.36576,0.38197z" data-paper-data="{&quot;index&quot;:null}" fill="#ff0000"/><path d="M162.92931,240.50521c-0.49987,0.0111 -0.51097,-0.48878 -0.51097,-0.48878l-0.00745,-0.3358c-0.03234,-1.45687 -0.51681,-4.04154 0.48449,-5.27036c1.51677,-1.8614 4.60164,-3.27189 6.54541,-4.7113c3.67558,-2.71547 7.92269,-4.8923 11.9682,-7.18718c1.87548,-1.06389 4.32713,-1.9944 5.76845,-3.60144c4.82823,-5.31025 7.71847,-11.56088 11.84321,-17.323c1.56393,-0.88833 2.50685,-2.10024 3.9452,-3.10221c0.9836,-0.6852 1.862,-0.74956 2.93084,-1.04439c2.18404,-0.60244 4.041,-2.4613 6.22546,-3.16017c1.88113,-0.60183 2.50554,0.80879 4.45094,0.45753c4.45789,4.04006 11.04114,10.62923 16.60821,14.87354c5.45195,4.0348 15.86508,14.46508 21.83303,18.72739c5.45818,3.89825 8.12505,4.51039 12.39964,7.49168c2.39972,1.67367 0.61219,0.34466 2.20001,1.63444c1.62516,1.32012 1.54977,1.35653 1.9116,1.70159c0.36184,0.34508 -0.30471,0.83619 -0.30471,0.83619c-3.88691,-3.12072 -11.22676,-7.43527 -16.34414,-10.48453c-5.11738,-3.04926 -17.28276,-14.43276 -21.66772,-18.90715c-5.65314,-3.80114 -12.65551,-9.8176 -16.53419,-14.87834c-1.87795,0.34502 -2.43223,-1.08081 -4.24796,-0.4999c-2.20369,0.70502 -4.05157,2.53546 -6.25875,3.17019c-0.98249,0.28254 -1.72151,0.27126 -2.63127,0.90288c-1.40245,0.97369 -2.28978,2.1931 -3.84706,3.0244c-3.95365,5.84102 -6.97328,11.9743 -11.77246,17.25259c-1.55435,1.6897 -4.02132,2.66795 -6.01498,3.79854c-4.01488,2.27681 -8.22339,4.42956 -11.86734,7.12166c-1.92598,1.41974 -4.82679,2.76718 -6.37211,4.54803c-0.78003,0.89892 -0.27631,3.5233 -0.25224,4.60713l0.00745,0.3358c0,0 0.0111,0.49987 -0.48878,0.51097z" data-paper-data="{&quot;index&quot;:null}" fill="#000000"/></g></g></svg>