<svg version="1.1" xmlns="http://www.w3.org/2000/svg" xmlns:xlink="http://www.w3.org/1999/xlink" width="105.56936" height="68.93623" viewBox="0,0,105.56936,68.93623"><g transform="translate(-163.92363,-169.32495)"><g data-paper-data="{&quot;isPaintingLayer&quot;:true}" fill-rule="nonzero" stroke="none" stroke-width="0.5" stroke-linecap="butt" stroke-linejoin="miter" stroke-miterlimit="10" stroke-dasharray="" stroke-dashoffset="0" style="mix-blend-mode: normal"><path d="M169.2823,169.33133c0.49536,0.06798 0.42738,0.56333 0.42738,0.56333l-0.04566,0.33276c-0.14739,1.07403 -0.94682,3.62394 -0.27429,4.60587c1.33237,1.94531 4.06078,3.61446 5.81247,5.24438c3.31352,3.08972 7.24937,5.70792 10.97871,8.42732c1.85187,1.35036 4.19133,2.6033 5.54305,4.45909c4.16658,5.79069 6.4678,12.22805 9.73025,18.48148c1.45243,1.00331 2.19506,2.31587 3.47745,3.443c0.83188,0.73116 1.56737,0.80414 2.51127,1.19678c2.1205,0.88206 3.7478,2.91111 5.85682,3.8626c1.73773,0.78399 3.81724,1.15097 5.64365,1.70769c6.92258,0.94944 13.84625,1.89717 20.76343,2.88523c6.65028,0.94994 14.09762,2.86225 19.82372,6.63555c3.36378,2.23022 6.891,4.38368 9.96244,7.04196c-0.01193,0.01424 -0.02382,0.02851 -0.03567,0.04282c-0.55146,-0.11184 -1.1194,-0.17831 -1.69974,-0.19533c-2.76925,-2.22694 -5.8416,-4.10985 -8.77945,-6.05587c-5.58032,-3.72131 -12.91456,-5.55096 -19.41272,-6.47917c-6.94183,-0.99159 -13.89212,-1.92436 -20.83642,-2.89843c-1.89271,-0.57061 -4.04017,-0.96069 -5.84048,-1.77291c-2.09062,-0.94319 -3.72371,-3.00151 -5.82489,-3.84885c-1.02829,-0.41468 -1.89364,-0.5787 -2.79277,-1.3715c-1.31483,-1.15932 -2.11354,-2.47076 -3.56608,-3.53148c-3.44141,-6.19453 -5.60071,-12.73374 -9.79252,-18.55949c-1.24885,-1.76078 -3.57852,-2.96455 -5.32058,-4.23518c-3.75772,-2.74084 -7.72917,-5.38736 -11.07145,-8.5039c-1.76712,-1.65149 -4.67121,-3.40425 -5.96604,-5.42633c-0.85478,-1.3349 -0.079,-3.84754 0.11911,-5.29124l0.04566,-0.33276c0,0 0.06798,-0.49536 0.56333,-0.42738z" data-paper-data="{&quot;index&quot;:null}" fill="#000000"/><path d="M164.43717,171.27838c0.49536,0.06798 0.31986,0.42115 0.31986,0.42115l0.0989,0.81943c-0.14739,1.07403 2.91073,2.42005 3.58328,3.40199c1.33237,1.94531 4.06077,3.61445 5.81246,5.24439c3.31352,3.08972 7.24938,5.70792 10.97871,8.42732c1.85187,1.35036 4.19134,2.6033 5.54305,4.45909c4.16659,5.79069 6.4678,12.22805 9.73025,18.48149c1.45244,1.00331 2.19506,2.31587 3.47745,3.44299c0.83188,0.73116 1.56738,0.80415 2.51127,1.19679c2.1205,0.88205 3.7478,2.91109 5.85682,3.8626c1.73773,0.78399 3.81724,1.15098 5.64366,1.7077c6.92258,0.94944 13.84624,1.89716 20.76343,2.88523c6.65029,0.94994 14.09761,2.86226 19.82371,6.63555c2.57424,1.70675 3.8812,3.64234 5.04836,5.7852c-0.38913,-0.13615 -0.78924,-0.24892 -1.19865,-0.33663c-1.04671,-1.68731 -2.31391,-3.23178 -4.40212,-4.615c-5.58032,-3.72131 -12.91456,-5.55096 -19.41273,-6.47916c-6.94183,-0.99159 -13.89212,-1.92437 -20.83642,-2.89844c-1.89271,-0.57061 -4.04016,-0.96068 -5.84048,-1.7729c-2.09062,-0.94319 -3.72371,-3.0015 -5.82489,-3.84884c-1.02829,-0.41468 -1.89364,-0.57871 -2.79277,-1.3715c-1.31483,-1.15932 -2.11354,-2.47076 -3.56608,-3.53148c-3.44141,-6.19453 -5.6007,-12.73374 -9.79251,-18.55949c-1.24885,-1.76078 -3.57853,-2.96454 -5.32058,-4.23518c-3.75771,-2.74084 -7.72916,-5.38736 -11.07144,-8.50391c-1.76712,-1.65149 -4.67121,-3.40425 -5.96603,-5.42634c-0.85478,-1.3349 -3.64862,-1.96741 -3.45052,-3.41111l-0.22953,-0.79514c0,0 0.0182,-1.05372 0.51356,-0.98575z" data-paper-data="{&quot;index&quot;:null}" fill="#ff0000"/></g></g></svg>