<svg version="1.1" xmlns="http://www.w3.org/2000/svg" xmlns:xlink="http://www.w3.org/1999/xlink" width="161.29645" height="181.23311" viewBox="0,0,161.29645,181.23311"><g transform="translate(-164.345,-164.43163)"><g data-paper-data="{&quot;isPaintingLayer&quot;:true}" stroke="none" stroke-linecap="butt" stroke-linejoin="miter" stroke-miterlimit="10" stroke-dasharray="" stroke-dashoffset="0" style="mix-blend-mode: normal"><g data-paper-data="{&quot;index&quot;:null}" fill-rule="evenodd" stroke-width="1"><path d="M174.09,268.15636c-0.105,-0.26 -0.615,-2.65 -0.665,-2.775c1.175,-7.375 9.55,-6.89 15.425,-5.815c7.465,1.365 11.93,6.555 14.825,13.26z" fill="#00a08c"/><path d="M174.79,269.05636c0.09,-0.615 -1.17,-3.68 1.83,-5.245c3,-1.565 8.22,-1.92 10.69,-1c2.915,1.06 7.935,3.935 9.09,6.895l-8.725,6.045z" fill="#000000"/><path d="M174.475,268.49136c0,0 0.5,-2.08 1.025,-2.69c0.731,-0.825 1.967,-0.966 2.865,-0.325c1.29,0.91 1.085,2.925 1.085,2.925z" fill="#ffffff"/></g><path d="M173.535,266.92136c2.365,-0.93 5.395,1.61 11.965,2.765c3.937,0.654 7.952,-0.59 10.83,-3.355c0,0 4.075,4.61 7.33,6.5c0.795,1.84 2.035,8.56 11.5,9.5c3.51,0.35 39.35,-6.175 52.895,-6.925c5.171,-0.282 10.358,-0.115 15.5,0.5l3.88,-2.135l2.565,-0.125c0,0 10.68,2.15 9.725,10.63c-0.955,8.48 -10.805,10.805 -10.805,10.805c0,0 -19.595,1.46 -41.445,4.65c-20.885,3.045 -34.47,6.24 -40.535,6.66c-18.73,1.3 -22.955,-17.03 -29.955,-21.03c-2.55,-1.46 -5.735,-1.28 -7.6,-3.865c-3.335,-4.62 -1.095,-12.505 4.15,-14.575z" data-paper-data="{&quot;index&quot;:null}" fill="#00a08c" fill-rule="evenodd" stroke-width="1"/><g data-paper-data="{&quot;index&quot;:null}" fill-rule="evenodd" stroke-width="1"><path d="M183.84,272.39636c-0.7,2.715 -2.72,1.435 -2.45,-0.54c0.265,-1.97 3.185,-2.325 2.45,0.54z" fill="#005a5a"/><path d="M173.56,272.63636c-0.7,2.715 -2.72,1.435 -2.45,-0.54c0.27,-1.955 3.185,-2.31 2.45,0.54z" fill="#005a5a"/><path d="M165.465,280.98636l-0.57,0.12c-0.663,-1.075 -0.731,-2.414 -0.18,-3.55l0.785,-0.175c0.87,0.85 0.845,2.855 -0.035,3.605z" fill="#000000"/><path d="M194.61,281.95136l-0.575,0.115c-0.663,-1.073 -0.731,-2.41 -0.18,-3.545l0.785,-0.18c0.89,0.855 0.86,2.86 -0.03,3.61z" fill="#000000"/></g><path d="M195.99,189.18136c7.615,-6.535 14.29,-5.2 29.91,-6.065c9.19,-0.505 32.25,-4.765 34.61,-5.165c6.14,-1.05 12.22,-1.895 18.425,-2.445c5.98,-0.525 14.025,-1.06 19.42,2.155c5.515,3.29 6.015,9.89 5.09,15.635c-0.21,1.29 -1.55,2.665 -2.96,2.5c-1.51,-0.18 -1.58,-1.58 -1.975,-2.945c-0.81,-2.795 -1.945,-5.185 -4.69,-6.63c-4.35,-2.265 -11.085,-1.075 -15.66,0c-37.04,8.72 -64.125,26.81 -75.365,31.5c-5.51,5.465 -11.735,13.735 -11.835,16.965c-0.56,-4.105 -1.865,-18.755 -2.035,-22.89c-0.17,-4.125 -0.55,-16.08 7.065,-22.615z" data-paper-data="{&quot;index&quot;:null}" fill="#005a5a" fill-rule="evenodd" stroke-width="1"/><path d="M271.89,209.09636c0,0 -4.725,-35.055 -5.595,-44.17c1.5,-0.455 11.56,-0.185 13.08,-0.05c2.05,5.115 8.92,45.83 8.92,45.83z" data-paper-data="{&quot;index&quot;:null}" fill="#008264" fill-rule="evenodd" stroke-width="1"/><path d="M223.16,209.09636c0,0 -2.635,-35.385 -3.5,-44.5c1.5,-0.45 11.08,0.15 12.6,0.285c2.055,5.12 5.74,45.615 5.74,45.615z" data-paper-data="{&quot;index&quot;:null}" fill="#008264" fill-rule="evenodd" stroke-width="1"/><g data-paper-data="{&quot;index&quot;:null}" fill-rule="evenodd" stroke-width="1"><path d="M281.49,291.28636c0,-0.535 1.305,-17.235 1.305,-17.235l4.645,-0.28c0,0 -5.95,18.05 -5.95,17.515z" fill="#005a5a"/><path d="M189.975,226.00136c-0.005,-4.09 1.015,-15.73 8.555,-25.695c7.54,-9.965 28.925,-8.6 29.065,-8.72c5.93,-0.695 39.75,-0.005 43.22,1.18c2.96,1.01 8.35,1.21 13.195,6.73c4.845,5.52 6.2,17.045 6.045,24.915c-0.055,2.8 -3.2,28.865 -5.44,47.73c-1,4.6 -2.075,31.18 -1.405,34.68c0.845,4.435 2.58,10.23 6.47,13c4.71,3.355 9.845,-1.1 11.75,-5.43c2.205,-5.045 8.5,-22.14 -12.5,-19.3c0.775,-3.625 -0.08,-6.81 0.32,-10.435c0.4,-3.625 0.435,-7.34 0.765,-11c4.61,-0.115 21.135,0.47 29,8.44c7.69,7.8 6.775,22.955 6.36,26c-1.55,11.285 -7.235,23.555 -16.345,30.69c-9.425,7.415 -22.395,9.34 -33,3.275c-5.53,-3.16 -10.53,-9.275 -12.3,-15.515c-0.31,-1.085 -2.005,-6.535 -2.035,-16.695c-0.025,-8.68 1.515,-21.055 2.38,-34.225c0,-0.015 0,-0.045 0,-0.045c-1.53,-7.065 -5.73,-8.565 -12.53,-8.065c-3.805,0.28 -7.66,0.35 -11.44,0.85c-2.82,0.37 -5.685,0.965 -8.535,0.965c-11.835,-0.055 -22.28,-5.445 -30.415,-13.76c-7.78,-7.975 -11.19,-18.665 -11.18,-29.57z" fill="#00a08c"/></g><path d="M248.085,209.09636c0,0 -2.635,-35.385 -3.5,-44.5c1.5,-0.45 11.08,0.15 12.6,0.285c2.05,5.115 5.735,45.61 5.735,45.61z" data-paper-data="{&quot;index&quot;:null}" fill="#00a08c" fill-rule="evenodd" stroke-width="1"/><path d="M200.475,209.09636c0,0 -2.635,-35.385 -3.5,-44.5c1.5,-0.45 11.08,0.15 12.6,0.285c2.055,5.115 5.735,45.61 5.735,45.61z" data-paper-data="{&quot;index&quot;:null}" fill="#00a08c" fill-rule="evenodd" stroke-width="1"/><path d="M218.69723,289.44337l-17.35182,12.96458l5.94477,0.03644l-26.7614,20.28309l14.89705,-17.26902l-4.90118,0.89028l13.54278,-14.76683l-6.71714,0.09361l12.1691,-11.26136l-5.56508,-0.31489l13.76128,-20.15813l9.70062,6.97494l-10.82356,10.56436l7.55542,1.21968l-12.84235,9.49212l7.39151,1.25113" fill="#faec00" fill-rule="nonzero" stroke-width="0.66342"/></g></g></svg>