<svg version="1.1" xmlns="http://www.w3.org/2000/svg" xmlns:xlink="http://www.w3.org/1999/xlink" width="91.90781" height="103.46248" viewBox="0,0,91.90781,103.46248"><g transform="translate(-194.59219,-127.50077)"><g data-paper-data="{&quot;isPaintingLayer&quot;:true}" stroke-miterlimit="10" stroke-dasharray="" stroke-dashoffset="0" style="mix-blend-mode: normal"><g data-paper-data="{&quot;index&quot;:null}" fill-rule="evenodd"><path d="M274.84219,194.3c3.1,-7.8 1.4,-14.8 5.7,-14.4c4.4,0.4 9.5,12.1 -0.1,20.7c-8.9,7.9 -18,5 -21.6,2.9c-3.5,-2.2 -0.8,-3.4 -0.2,-4.2c0.6,-0.8 11.8,6.3 16.2,-5z" fill="#ffab19" stroke="#001026" stroke-width="1.2" stroke-linecap="round" stroke-linejoin="round"/><path d="M280.04219,180.4c2.5,-0.4 4.7,3.2 5.2,6.7c0.2,3.6 -0.4,5.7 -1.1,7.4c-0.1,-0.7 -1,-3.1 -3.9,-3.6c-2.4,-0.4 -4,1.6 -4,1.6c0,0 1,-3 1.5,-7.4c0.4,-2.7 0.3,-4.3 2.3,-4.7z" fill="#ffffff" stroke="none" stroke-width="1" stroke-linecap="butt" stroke-linejoin="miter"/></g><path d="M252.64052,204.28962c1.31803,4.76055 -2.96258,6.21877 -5.44314,7.57775c-3.47279,1.90256 -6.333,2.42138 -6.66948,3.57324c-1.14963,3.93552 -0.51969,8.91179 -2.6249,11.83891c-1.38478,1.88743 -11.32767,-0.80869 -13.32295,-2.53752c-2.4871,-2.18503 -0.57609,-9.44024 8.00248,-5.99669c0,0 -0.97621,-9.14041 1.96485,-11.71919c4.22556,-3.76625 8.14595,-4.70463 9.20612,-5.12419c3.12444,-1.06671 7.68871,-1.71282 8.88701,2.38768z" data-paper-data="{&quot;index&quot;:null}" fill="#ffab19" fill-rule="evenodd" stroke="#001026" stroke-width="1.2" stroke-linecap="round" stroke-linejoin="round"/><path d="M241.84219,188.7c4,6.6 0.8,17.3 -6.2,19.2c-5.4,1.5 -11.9,1.4 -11.5,-3.4c0.4,-4.9 7.4,-2.9 9.7,-4.1c2.4,-1.3 2.6,-9.7 2.9,-11.9c0.3,-2.3 3.6,-2.1 5.1,0.2z" data-paper-data="{&quot;index&quot;:null}" fill="#ffab19" fill-rule="evenodd" stroke="#001026" stroke-width="1.2" stroke-linecap="round" stroke-linejoin="round"/><g data-paper-data="{&quot;index&quot;:null}" fill-rule="evenodd"><path d="M251.20114,204.90505c-1.45962,-0.3457 -4.0685,-1.82683 -6.49403,-3.38786c-1.95077,-1.2225 -4.71227,-4.05519 -4.71227,-4.05519c-1.82376,-1.93233 -4.29128,-6.09302 -1.22608,-7.31961c2.05678,-0.78717 3.77043,-1.86114 6.68762,-3.67773c5.0211,-3.49694 5.64182,-5.0764 9.63964,-1.90979c7.44099,5.81134 15.29835,8.82329 9.69853,16.49935c-1.35412,1.89904 -3.48875,5.01085 -5.25669,7.96287c-1.07449,2.54076 3.31359,5.10099 6.19749,6.46228c1.26449,0.64889 1.90365,2.11568 1.33465,3.56352c-3.85596,9.42505 -4.87411,12.59575 -8.67937,10.87238c-5.16142,-2.33232 -1.2988,-8.48782 -1.2988,-8.48782c0,0 -7.39643,-4.9581 -8.16465,-8.22304c-0.6366,-3.21321 2.27394,-8.29935 2.27394,-8.29935z" fill="#ffab19" stroke="#001026" stroke-width="1.2" stroke-linecap="round" stroke-linejoin="round"/><path d="M244.37443,200.5745c0,0 -2.7405,-1.53286 0.12292,-5.72581c2.96687,-4.45619 5.80366,-2.20172 8.41254,-0.72059c3.07186,2.04296 1.83758,4.21702 0.72315,6.66611c-0.86758,2.01428 -1.76333,3.71358 -1.76333,3.71358c0,0 -3.6808,-0.68679 -7.49528,-3.9333z" fill="#ffffff" stroke="none" stroke-width="1" stroke-linecap="butt" stroke-linejoin="miter"/></g><path d="M249.59589,184.9565c6.5871,-1.7482 16.4463,-4.5565 19.3463,-1.0565c1.3,1.5 5.2,9.8 4.9,14.1c-0.4,4.6 -7.2,5.9 -8.7,1.5c-1.1,-3.1 -2.9,-8.3 -3.2,-8.4c-1.1,-0.2 -5.2,1.6 -7.4,0.6" data-paper-data="{&quot;index&quot;:null}" fill="#ffab19" fill-rule="evenodd" stroke="#001026" stroke-width="1.2" stroke-linecap="round" stroke-linejoin="round"/><path d="M236.99219,136c2.3,-0.4 4.7,-0.6 7.5,-0.4c4.7,0.2 9.2,1.9 9.2,1.9l12.1,-7.9c0.4,-0.2 0.9,0.1 0.8,0.5l-2.1,17.9c-0.6,-0.8 10.6,12.8 3.5,24.2c-7.1,11.4 -22.2,16.5 -41,12.8c-18.8,-3.7 -23.2,-14.5 -22,-20.2c1.2,-5.7 8.3,-7.8 8.3,-7.8c0,0 0.1,-4.5 3.3,-10c1.9,-3.3 8.3,-8 8.3,-8l2.6,-10.7c0.1,-0.4 0.6,-0.5 0.9,-0.3z" fill="#ffab19" fill-rule="evenodd" stroke="#001026" stroke-width="1.2" stroke-linecap="butt" stroke-linejoin="miter"/><path d="M230.09219,162.3c8.4,0.6 19.9,-8.5 26.6,2.2c6.7,10.6 -4.8,25 -29,20c-18.6,-3.6 -23.4,-13.9 -22.2,-19.6c1.2,-5.7 8.1,-7.5 8.1,-7.5c8.5,-1.9 9.3,4.4 16.5,4.9z" fill="#ffffff" fill-rule="evenodd" stroke="none" stroke-width="1" stroke-linecap="butt" stroke-linejoin="miter"/><path d="M207.09219,162.4c0,0 -7.2,-0.1 -11.9,-3.9" fill="none" fill-rule="evenodd" stroke="#001026" stroke-width="1.2" stroke-linecap="round" stroke-linejoin="round"/><path d="M206.69219,168.3c0,0 -3.9,1.9 -10.2,1.4" fill="none" fill-rule="evenodd" stroke="#001026" stroke-width="1.2" stroke-linecap="round" stroke-linejoin="round"/><path d="M235.09219,161c0,1.6 -4.2,4.1 -6,3.9c-1.6,-0.1 -3.1,-2.9 -3,-4.3c0.1,-0.7 2.3,-0.9 4.4,-0.9c2,0 4.7,0.1 4.6,1.3z" fill="#001026" fill-rule="evenodd" stroke="#001026" stroke-width="1.2" stroke-linecap="round" stroke-linejoin="round"/><path d="M263.39219,164.1c3.5,-3.1 12.1,-5.9 12.1,-5.9" fill="none" fill-rule="evenodd" stroke="#001026" stroke-width="1.2" stroke-linecap="round" stroke-linejoin="round"/><path d="M274.79219,168.2c0,0 -7.4,1.1 -11.7,-0.6" fill="none" fill-rule="evenodd" stroke="#001026" stroke-width="1.2" stroke-linecap="round" stroke-linejoin="round"/><g fill-rule="evenodd"><path d="M229.09219,143.2c2.8,1.8 2.7,6.9 -0.2,11.4c-3,4.5 -7.6,6.6 -10.4,4.8c-2.8,-1.8 -2.7,-6.9 0.2,-11.4c2.9,-4.5 7.6,-6.7 10.4,-4.8z" fill="#ffffff" stroke="#001026" stroke-width="1.2" stroke-linecap="round" stroke-linejoin="round"/><path d="M219.09219,153.7c0,-1.1 0.8,-2 1.8,-2c1,0 1.8,0.9 1.8,2c0,1.1 -0.8,2 -1.8,2c-1,0 -1.8,-0.9 -1.8,-2" fill="#001026" stroke="none" stroke-width="1" stroke-linecap="butt" stroke-linejoin="miter"/></g><g fill-rule="evenodd"><path d="M254.29219,146.3c3.1,2.2 2.9,7.9 -0.2,12.3c-3,4.4 -7.4,5.8 -10.7,3.9c-2.7,-1.9 -2.9,-7.3 0.1,-11.7c3,-4.4 7.7,-6.8 10.8,-4.5z" fill="#ffffff" stroke="#001026" stroke-width="1.2" stroke-linecap="round" stroke-linejoin="round"/><path d="M244.09219,156.6c0,-1.1 0.8,-1.9 1.8,-2c1,0 1.8,0.9 1.8,2c0,1.1 -0.8,2 -1.8,2c-1,0 -1.8,-0.9 -1.8,-2" fill="#001026" stroke="none" stroke-width="1" stroke-linecap="butt" stroke-linejoin="miter"/></g><path d="M226.82559,175.8764c0,1.75 -1.75,1.75 -1.75,1.75l-1.58445,-0.29391c-1.19912,-0.80066 -2.37137,-1.64467 -3.49799,-2.54448c0,0 -1.36652,-1.09322 -0.2733,-2.45974c1.09322,-1.36652 2.45974,-0.2733 2.45974,-0.2733c1.04617,0.83843 2.13692,1.62252 3.25301,2.36534l-0.357,-0.29391c0,0 1.75,0 1.75,1.75z" fill="#000000" fill-rule="nonzero" stroke="none" stroke-width="0.5" stroke-linecap="butt" stroke-linejoin="miter"/></g></g></svg>